<svg xmlns="http://www.w3.org/2000/svg" width="111" height="25.041" viewBox="0 0 111 25.041"><defs><style>.a{fill:#fff;}.b{fill:#fdb913;}</style></defs><g transform="translate(-367 -225)"><path class="a" d="M512.225,257H500.113a3.992,3.992,0,0,1-3.951-2.738c-.352-.846.347-1.075.347-1.075h11.752a6.464,6.464,0,0,0,4.267-1.436c.886-.886,1.345-1.811,1.35-3.906a4.522,4.522,0,0,0-1.6-3.94,5.633,5.633,0,0,0-3.976-1.517h-9.19c-4.811,0-8.428,4.1-8.428,9.146s3.617,9.145,8.428,9.145h9.845c2.667,0,3.326-.59,4.018-1.323a2.245,2.245,0,0,0,.845-1.672c0-.795-1.6-.684-1.6-.684m-15.834-8.633c.8-1.364,1.761-2.418,4.406-2.418h5.312s2.47.2,2.47,1.908-1.336,2.023-3.067,2.023-8.468-.026-8.468-.026-1.446-.115-.654-1.487" transform="translate(-78.076 -10.974)"/><path class="a" d="M448.129,242.9c0,5.188,4.33,6.961,7.687,6.961h2.342a3.966,3.966,0,0,0,3.579-2.393c.53-1.241-1.058-1.241-1.058-1.241h-4.288a2.531,2.531,0,0,1-2.132-.971c-.794-1.186-.649-1.6-.649-3.06V229.434a3.7,3.7,0,0,0-.664-2.479,6.941,6.941,0,0,0-3.537-1.689c-1.368-.089-1.324,1.553-1.324,1.553s.043,10.637.043,16.084" transform="translate(-51.184 -0.166)"/><path class="a" d="M392.716,225.021,375.971,225c-2.17,0-4.533.185-5.911.968A5.485,5.485,0,0,0,367,230.554v2.324c-.007,3.025.029,6.5.018,9.109-.019.216-.021.35-.021.35v6.481c0,1.225.517,1.876,3.1.268,2.34-1.461,2.148-3.056,2.148-3.056v-3.645a3.127,3.127,0,0,1,.69-2.377,2.9,2.9,0,0,1,1.954-.732h11.867a10.348,10.348,0,0,0,4.1-.5,4.567,4.567,0,0,0,2.256-2.691c.155-.535-.88-.575-.88-.575H375.713a3.358,3.358,0,0,1-3.551-2.665v-1.413c.326-1.841,1.97-2.3,3.959-2.3h14.052a4.468,4.468,0,0,0,2.982-1.72c.746-1.023.689-1.384.689-1.384s.314-1-1.128-1" transform="translate(0)"/><path class="b" d="M595.831,257.242h-4.465c-2.021,0-6.178-.312-6.178-4.99,0-.108,0-.211.007-.316s-.007-.209-.007-.317c0-4.679,4.158-4.991,6.178-4.991h4.465c3.03,0,3.656-.545,4.355-1.4a2.938,2.938,0,0,0,.77-1.517c0-.939-1.165-.884-1.165-.884H589.346c-2.312,0-6.016.976-7.972,3.725-1.961-2.749-5.66-3.725-7.974-3.725H562.954s-1.165-.055-1.165.884a2.945,2.945,0,0,0,.771,1.517c.7.859,1.328,1.4,4.355,1.4h4.465c2.021,0,6.18.312,6.18,4.991,0,.108,0,.211-.007.317s.007.208.007.316c0,4.678-4.159,4.99-6.18,4.99h-4.465c-3.027,0-3.655.546-4.355,1.4a2.949,2.949,0,0,0-.771,1.518c0,.936,1.165.884,1.165.884H573.4c2.314,0,6.013-.978,7.974-3.727,1.956,2.749,5.66,3.727,7.972,3.727h10.446s1.165.052,1.165-.884a2.947,2.947,0,0,0-.77-1.518c-.7-.857-1.325-1.4-4.355-1.4" transform="translate(-122.957 -11.25)"/></g></svg>