<svg xmlns="http://www.w3.org/2000/svg" width="221.828" height="162.791" viewBox="0 0 221.828 162.791"><g transform="translate(-414 -251)"><path d="M501.864,404.185h-11.28c-5.105,0-15.607-.788-15.607-12.606,0-.273,0-.533.018-.8s-.018-.528-.018-.8c0-11.821,10.5-12.609,15.607-12.609h11.28c7.654,0,9.236-1.377,11-3.536A7.422,7.422,0,0,0,514.811,370c0-2.372-2.943-2.233-2.943-2.233H485.481c-5.84,0-15.2,2.466-20.139,9.41-4.954-6.944-14.3-9.41-20.144-9.41H418.809s-2.943-.139-2.943,2.233a7.44,7.44,0,0,0,1.947,3.833c1.769,2.17,3.355,3.536,11,3.536H440.1c5.105,0,15.612.788,15.612,12.609,0,.273,0,.533-.018.8s.018.525.018.8c0,11.818-10.507,12.606-15.612,12.606h-11.28c-7.647,0-9.233,1.379-11,3.536a7.45,7.45,0,0,0-1.947,3.835c0,2.365,2.943,2.234,2.943,2.234H445.2c5.846,0,15.19-2.471,20.144-9.416,4.941,6.945,14.3,9.416,20.139,9.416H511.87s2.943.131,2.943-2.234a7.45,7.45,0,0,0-1.945-3.835c-1.768-2.165-3.347-3.536-11-3.536"/><path d="M422.36,305.78a14.177,14.177,0,0,1-6.17-4.22,9.473,9.473,0,0,1-2.19-6.131v-.8a.949.949,0,0,1,.956-.955h8.837a.953.953,0,0,1,.956.955v.08A3.531,3.531,0,0,0,426.7,297.7a8.979,8.979,0,0,0,4.9,1.235,7.993,7.993,0,0,0,4.379-1.075,3.129,3.129,0,0,0,1.672-2.668,2.3,2.3,0,0,0-1.433-2.15,24.416,24.416,0,0,0-4.7-1.512,47.074,47.074,0,0,1-5.891-1.831,25.242,25.242,0,0,1-8.122-4.3,9.038,9.038,0,0,1-3.026-7.325,11.118,11.118,0,0,1,4.578-9.356q4.578-3.463,12.143-3.463a22.582,22.582,0,0,1,8.917,1.631,13.72,13.72,0,0,1,5.932,4.579,11.21,11.21,0,0,1,2.11,6.688.951.951,0,0,1-.955.956h-8.52a.951.951,0,0,1-.955-.956,3.484,3.484,0,0,0-1.792-2.946,8.419,8.419,0,0,0-4.737-1.194,8.6,8.6,0,0,0-4.3.955,2.924,2.924,0,0,0-1.672,2.629,2.548,2.548,0,0,0,1.633,2.388,27.736,27.736,0,0,0,5.454,1.671q.873.242,1.99.518t2.389.676a25.889,25.889,0,0,1,8.917,4.3q3.264,2.627,3.264,7.644a10.639,10.639,0,0,1-4.657,9.2q-4.659,3.306-12.541,3.3A26.174,26.174,0,0,1,422.36,305.78Z"/><path d="M480.57,266.965a15.229,15.229,0,0,1,6.33,4.9,11.461,11.461,0,0,1,2.269,6.928V305.78a.949.949,0,0,1-.955.955H478.9a.949.949,0,0,1-.954-.955v-2.627a.322.322,0,0,0-.161-.319c-.107-.053-.212,0-.318.159q-3.344,4.38-10.749,4.38-6.21,0-10.032-3.026t-3.822-8.918a11.418,11.418,0,0,1,4.3-9.515q4.3-3.383,12.261-3.384h8.122a.352.352,0,0,0,.4-.4v-1.752a5.315,5.315,0,0,0-1.593-4.1,6.825,6.825,0,0,0-4.777-1.473,8.6,8.6,0,0,0-4.1.876,4.09,4.09,0,0,0-2.11,2.468.913.913,0,0,1-1.035.8l-9.634-1.274q-.955-.159-.876-.717a10.592,10.592,0,0,1,2.667-6.051,15.551,15.551,0,0,1,6.21-4.22,23.525,23.525,0,0,1,8.639-1.513A22.651,22.651,0,0,1,480.57,266.965Zm-5.016,30.216a5.667,5.667,0,0,0,2.39-4.7v-2.867a.354.354,0,0,0-.4-.4h-5.733a10.032,10.032,0,0,0-5.614,1.355,4.334,4.334,0,0,0-2.029,3.821,4.131,4.131,0,0,0,1.512,3.385,6.232,6.232,0,0,0,4.061,1.233A9.268,9.268,0,0,0,475.554,297.181Z"/><path d="M497.061,306.457a.915.915,0,0,1-.279-.677V251.956a.954.954,0,0,1,.956-.956h9.316a.953.953,0,0,1,.954.956V305.78a.949.949,0,0,1-.954.955h-9.316A.917.917,0,0,1,497.061,306.457Z"/><path d="M551.9,288.82a.928.928,0,0,1-1.035.956h-24.6c-.318,0-.425.133-.318.4a14.172,14.172,0,0,0,.876,3.185q2.068,4.459,8.44,4.459a9.609,9.609,0,0,0,8.041-4.14.882.882,0,0,1,.717-.478.869.869,0,0,1,.556.319l5.734,5.653a1.1,1.1,0,0,1,.4.716,1.642,1.642,0,0,1-.319.637,17.363,17.363,0,0,1-6.767,5.056,22.627,22.627,0,0,1-9.077,1.792,20.674,20.674,0,0,1-11.585-3.1,17.239,17.239,0,0,1-6.807-8.68,27.285,27.285,0,0,1-1.673-10.43,22.932,22.932,0,0,1,1.194-7.724,17.5,17.5,0,0,1,6.41-9,17.92,17.92,0,0,1,10.868-3.344q7.96,0,12.78,4.617a20.22,20.22,0,0,1,5.852,12.342A34.38,34.38,0,0,1,551.9,288.82Zm-25.479-9.315a18.683,18.683,0,0,0-.557,2.548.351.351,0,0,0,.4.4h13.774c.319,0,.425-.132.319-.4q-.4-2.309-.4-2.229a6.876,6.876,0,0,0-2.508-3.7,7.269,7.269,0,0,0-4.419-1.314A6.381,6.381,0,0,0,526.423,279.505Z"/><path d="M564.522,305.78a14.181,14.181,0,0,1-6.171-4.22,9.478,9.478,0,0,1-2.19-6.131v-.8a.951.951,0,0,1,.956-.955h8.838a.951.951,0,0,1,.955.955v.08a3.531,3.531,0,0,0,1.951,2.985,8.984,8.984,0,0,0,4.9,1.235,7.993,7.993,0,0,0,4.379-1.075,3.128,3.128,0,0,0,1.673-2.668,2.3,2.3,0,0,0-1.433-2.15,24.464,24.464,0,0,0-4.7-1.512,47.042,47.042,0,0,1-5.892-1.831,25.253,25.253,0,0,1-8.122-4.3,9.041,9.041,0,0,1-3.025-7.325,11.115,11.115,0,0,1,4.578-9.356q4.577-3.463,12.142-3.463a22.587,22.587,0,0,1,8.918,1.631,13.731,13.731,0,0,1,5.932,4.579,11.216,11.216,0,0,1,2.11,6.688.953.953,0,0,1-.956.956h-8.519a.953.953,0,0,1-.956-.956A3.482,3.482,0,0,0,578.1,275.2a8.417,8.417,0,0,0-4.737-1.194,8.593,8.593,0,0,0-4.3.955,2.923,2.923,0,0,0-1.673,2.629,2.55,2.55,0,0,0,1.633,2.388,27.757,27.757,0,0,0,5.454,1.671q.875.242,1.991.518t2.388.676a25.88,25.88,0,0,1,8.917,4.3q3.264,2.627,3.265,7.644a10.64,10.64,0,0,1-4.658,9.2q-4.658,3.306-12.54,3.3A26.171,26.171,0,0,1,564.522,305.78Z"/><path d="M420.011,317.268l8.031,22.584,8.55-22.584h4.3v39.906h-3.207V339.5l.247-17.842-8.853,23.515h-2.137l-8.223-23.132L419,339.5v17.678H415.79V317.268Z"/><path d="M469.459,346.047H454.276l-3.536,11.127h-3.317l12.992-39.906h2.96l12.881,39.906h-3.289Zm-14.251-2.933h13.32l-6.634-20.994Z"/><path d="M506.9,345.059a17.779,17.779,0,0,1-1.343,5,13.392,13.392,0,0,1-2.685,4.028,11.89,11.89,0,0,1-3.961,2.672,13.166,13.166,0,0,1-5.139.959,12.189,12.189,0,0,1-4.316-.726,11.541,11.541,0,0,1-3.426-1.987,13.171,13.171,0,0,1-2.591-2.96,18.24,18.24,0,0,1-1.809-3.658,22.332,22.332,0,0,1-1.054-4.07,28.5,28.5,0,0,1-.371-4.193v-5.784a28.5,28.5,0,0,1,.371-4.193,22.332,22.332,0,0,1,1.054-4.07,18.249,18.249,0,0,1,1.809-3.659,13.462,13.462,0,0,1,2.591-2.973,11.386,11.386,0,0,1,3.426-2,12.189,12.189,0,0,1,4.316-.726,13.32,13.32,0,0,1,5.194.959,11.885,11.885,0,0,1,3.961,2.672,13.191,13.191,0,0,1,2.672,4.043,17.694,17.694,0,0,1,1.3,5.07h-3.261a17.9,17.9,0,0,0-1.056-3.865,10.755,10.755,0,0,0-1.931-3.165,8.714,8.714,0,0,0-2.9-2.138,9.433,9.433,0,0,0-3.975-.781,8.545,8.545,0,0,0-3.453.658,8.877,8.877,0,0,0-2.645,1.754,10.455,10.455,0,0,0-1.932,2.562,16.348,16.348,0,0,0-1.288,3.111,21.821,21.821,0,0,0-.726,3.358,24.594,24.594,0,0,0-.233,3.33v5.838a24.883,24.883,0,0,0,.233,3.343,21.757,21.757,0,0,0,.726,3.371,16.32,16.32,0,0,0,1.288,3.111,10.707,10.707,0,0,0,1.932,2.576,8.767,8.767,0,0,0,2.645,1.768,8.562,8.562,0,0,0,3.453.658,9.9,9.9,0,0,0,4.015-.754,8.309,8.309,0,0,0,2.906-2.1,10.729,10.729,0,0,0,1.918-3.152,16.924,16.924,0,0,0,1.028-3.893Z"/><path d="M539.065,357.174h-3.1V338.043H517.221v19.131h-3.1V317.268h3.1v17.925h18.746V317.268h3.1Z"/><path d="M547.01,317.268h23.1v2.96h-10v34.04h10v2.906h-23.1v-2.906h9.7v-34.04h-9.7Z"/><path d="M602.947,357.174h-3.262L581.377,323.49l-.028,33.684h-3.261V317.268h3.261L599.657,350.9l.028-33.629h3.262Z"/><path d="M633.142,338.043h-17.6v16.28h20.282v2.851H612.284V317.268h23.434v2.878H615.546v15.047h17.6Z"/></g></svg>