<svg xmlns="http://www.w3.org/2000/svg" width="140.672" height="50" viewBox="0 0 140.672 50"><defs><style>.a{fill:#fff;}.b{fill:none;}.c{fill:#e73c6b;}</style></defs><g transform="translate(0 0)"><path class="a" d="M134.356,50.3H7.116A6.736,6.736,0,0,1,.4,43.584V7.016A6.736,6.736,0,0,1,7.116.3H134.356a6.736,6.736,0,0,1,6.716,6.716V43.584A6.689,6.689,0,0,1,134.356,50.3ZM7.116,2.016a5,5,0,0,0-5,5V43.584a5,5,0,0,0,5,5H134.356a5,5,0,0,0,5-5V7.016a5,5,0,0,0-5-5Z" transform="translate(-0.4 -0.3)"/><g transform="translate(10.821 9.925)"><path class="b" d="M92.61,38.4a2.817,2.817,0,0,0-1.716.6,2.983,2.983,0,0,0-1.045,1.642,3.85,3.85,0,0,0-.149.821V43.4a3.188,3.188,0,0,0,.746,2.164A2.759,2.759,0,0,0,94.7,45.34a5.058,5.058,0,0,0,.821-2.985,4.482,4.482,0,0,0-.746-2.761A2.279,2.279,0,0,0,92.61,38.4Z" transform="translate(-33.879 -19.893)"/><path class="b" d="M75.51,38.4a2.817,2.817,0,0,0-1.716.6,3.462,3.462,0,0,0-1.045,1.642,3.851,3.851,0,0,0-.149.821V43.4a3.188,3.188,0,0,0,.746,2.164A2.759,2.759,0,0,0,77.6,45.34a5.058,5.058,0,0,0,.821-2.985,4.482,4.482,0,0,0-.746-2.761A2.279,2.279,0,0,0,75.51,38.4Z" transform="translate(-29.54 -19.893)"/><path class="b" d="M57.164,32.8h0c-.224.672-.448,1.716-.821,3.06L55,40.039h4.328L57.985,35.86C57.836,35.412,57.537,34.367,57.164,32.8Z" transform="translate(-25.075 -18.472)"/><path class="b" d="M138.56,38.2a2.617,2.617,0,0,0-2.388,1.418,6.012,6.012,0,0,0,0,5.522,2.574,2.574,0,0,0,2.313,1.343,2.509,2.509,0,0,0,2.313-1.418,5.733,5.733,0,0,0,.075-5.522A2.5,2.5,0,0,0,138.56,38.2Z" transform="translate(-45.5 -19.842)"/><path class="b" d="M164.936,38a2.725,2.725,0,0,0-2.09,1.045,3.469,3.469,0,0,0-.746,2.015h5.373a3.7,3.7,0,0,0-.522-2.015A2.2,2.2,0,0,0,164.936,38Z" transform="translate(-52.249 -19.791)"/><path class="a" d="M75.518,35.6a4.3,4.3,0,0,0-3.955,2.09h-.075l-.149-1.866H69.1c.075,1.269.075,2.612.075,3.806V52.167h2.612V46.048A3.533,3.533,0,0,0,75.07,47.69,4.9,4.9,0,0,0,78.652,46.2a6.656,6.656,0,0,0,1.642-4.7,6.32,6.32,0,0,0-1.343-4.254A4.339,4.339,0,0,0,75.518,35.6Zm1.343,8.955a2.759,2.759,0,0,1-4.254.224,3.062,3.062,0,0,1-.746-2.164v-1.94a4.873,4.873,0,0,1,.149-.821,2.745,2.745,0,0,1,1.045-1.642,2.542,2.542,0,0,1,1.716-.6,2.569,2.569,0,0,1,2.239,1.119,4.631,4.631,0,0,1,.746,2.761A5.722,5.722,0,0,1,76.861,44.555Z" transform="translate(-28.652 -19.182)"/><path class="a" d="M54.049,29.9,48.9,46.019h2.687L53,41.318h5.224l1.493,4.7h2.761L57.258,29.9Zm-.6,9.4L54.8,35.124c.373-1.343.6-2.388.746-3.06h.075c.373,1.567.672,2.612.821,3.06L57.781,39.3Z" transform="translate(-23.527 -17.736)"/><path class="a" d="M169.1,41.122a6.4,6.4,0,0,0-1.045-3.657,4.269,4.269,0,0,0-3.806-1.866,4.76,4.76,0,0,0-4.03,1.866,6.642,6.642,0,0,0-1.418,4.4,5.409,5.409,0,0,0,5.821,5.821,8.788,8.788,0,0,0,3.881-.746l-.373-1.791a8.643,8.643,0,0,1-3.134.522,3.978,3.978,0,0,1-2.537-.821,3.179,3.179,0,0,1-1.119-2.612H169.1Zm-7.836-.672a3.906,3.906,0,0,1,.746-2.015,2.514,2.514,0,0,1,2.09-1.045,2.419,2.419,0,0,1,2.09,1.045,3.532,3.532,0,0,1,.522,2.015Z" transform="translate(-51.412 -19.182)"/><path class="a" d="M125.754,32.1l-2.537.746V35.01H121.5v1.94h1.716v5.9a4.37,4.37,0,0,0,.9,3.134,3.151,3.151,0,0,0,2.388.9,5.217,5.217,0,0,0,2.015-.3l-.075-1.94a4.517,4.517,0,0,1-1.119.149c-.97,0-1.493-.746-1.493-2.164V36.951h2.836V35.01h-2.836V32.1Z" transform="translate(-41.948 -18.294)"/><path class="a" d="M153.057,36.272a3.367,3.367,0,0,0-1.269,1.866h-.075l-.075-2.239H149.4c.075,1.119.075,2.313.075,3.657V47.54h2.612V41.421a3.856,3.856,0,0,1,.672-2.313,2.514,2.514,0,0,1,2.09-1.045,3.061,3.061,0,0,1,.821.075V35.675c-.224,0-.373-.075-.672-.075A3.066,3.066,0,0,0,153.057,36.272Z" transform="translate(-49.027 -19.182)"/><path class="a" d="M137.821,35.6a5.561,5.561,0,0,0-4.254,1.716,6.235,6.235,0,0,0-1.567,4.4,6.285,6.285,0,0,0,1.493,4.254,5.857,5.857,0,0,0,8.358-.075,6.191,6.191,0,0,0,1.493-4.4,6.285,6.285,0,0,0-1.493-4.254A5.275,5.275,0,0,0,137.821,35.6Zm2.164,8.806a2.629,2.629,0,0,1-4.627.075,6.012,6.012,0,0,1,0-5.522,2.674,2.674,0,0,1,2.388-1.418,2.509,2.509,0,0,1,2.313,1.418,5.22,5.22,0,0,1,.672,2.761A4.872,4.872,0,0,1,139.985,44.406Z" transform="translate(-44.612 -19.182)"/><path class="a" d="M113.321,36.69a7.664,7.664,0,0,1-2.313-1.269,2.007,2.007,0,0,1-.075-3.06,3.132,3.132,0,0,1,2.164-.672,6,6,0,0,1,3.06.746l.672-2.09a7.6,7.6,0,0,0-3.657-.746,5.986,5.986,0,0,0-3.955,1.269,4.15,4.15,0,0,0-1.493,3.284c0,2.015,1.418,3.582,4.254,4.627a6.092,6.092,0,0,1,2.239,1.269,2.194,2.194,0,0,1,.672,1.642,2.271,2.271,0,0,1-.821,1.791,3.342,3.342,0,0,1-2.239.672,7.931,7.931,0,0,1-3.731-.97l-.6,2.164a7.706,7.706,0,0,0,4.179.97,6.255,6.255,0,0,0,4.4-1.418A4.14,4.14,0,0,0,117.5,41.54a3.908,3.908,0,0,0-.97-2.761A7.29,7.29,0,0,0,113.321,36.69Z" transform="translate(-38.395 -17.66)"/><path class="a" d="M92.618,35.6a4.381,4.381,0,0,0-3.955,2.09h-.075l-.149-1.866H86.2c.075,1.269.075,2.612.075,3.806V52.167h2.612V46.048A3.533,3.533,0,0,0,92.17,47.69,4.9,4.9,0,0,0,95.752,46.2a6.656,6.656,0,0,0,1.642-4.7,6.32,6.32,0,0,0-1.343-4.254A4.339,4.339,0,0,0,92.618,35.6Zm1.343,8.955a2.759,2.759,0,0,1-4.254.224,3.062,3.062,0,0,1-.746-2.164v-1.94a4.873,4.873,0,0,1,.149-.821,2.745,2.745,0,0,1,1.045-1.642,2.542,2.542,0,0,1,1.716-.6,2.569,2.569,0,0,1,2.239,1.119,4.631,4.631,0,0,1,.746,2.761A5.723,5.723,0,0,1,93.961,44.555Z" transform="translate(-32.991 -19.182)"/><path class="c" d="M17.587,44.122H28.93a2.6,2.6,0,0,0,2.612-2.612v-25.3A2.6,2.6,0,0,0,28.93,13.6H17.587A2.66,2.66,0,0,0,14.9,16.212V41.436A2.675,2.675,0,0,0,17.587,44.122ZM23.258,42.7A1.343,1.343,0,1,1,24.6,41.361,1.338,1.338,0,0,1,23.258,42.7Zm1.269-26.418a.3.3,0,1,1,0,.6H21.915a.3.3,0,1,1,0-.6M16.542,18.9H29.975V38.749H16.542Z" transform="translate(-14.9 -13.6)"/></g></g><g transform="translate(36.269 10.746)"><path class="a" d="M49,15h3.134a3.143,3.143,0,0,1,1.493.3,2.847,2.847,0,0,1,1.045.821,3.591,3.591,0,0,1,.6,1.194,4.812,4.812,0,0,1,.224,1.493,5.171,5.171,0,0,1-.224,1.493,3.591,3.591,0,0,1-.6,1.194,2.847,2.847,0,0,1-1.045.821,3.143,3.143,0,0,1-1.493.3H49Zm1.269,6.418h1.269a3.216,3.216,0,0,0,1.269-.224,1.49,1.49,0,0,0,.746-.6,2.758,2.758,0,0,0,.373-.821A4.589,4.589,0,0,0,54,18.731a4.589,4.589,0,0,0-.075-1.045,2.758,2.758,0,0,0-.373-.821,2.032,2.032,0,0,0-.746-.6,2.974,2.974,0,0,0-1.269-.224H50.269Z" transform="translate(-49 -14.776)"/><path class="a" d="M59,15h1.194v1.119H59Zm0,2.015h1.194v5.448H59Z" transform="translate(-51.537 -14.776)"/><path class="a" d="M63.094,21.457a.823.823,0,0,0,.373.746,1.5,1.5,0,0,0,.821.224h.373a3.232,3.232,0,0,0,.373-.075,1.03,1.03,0,0,0,.3-.224.328.328,0,0,0,.075-.373.57.57,0,0,0-.149-.373,1.631,1.631,0,0,0-.373-.224c-.149-.075-.373-.075-.6-.149s-.448-.075-.672-.149-.448-.075-.672-.149a1.2,1.2,0,0,1-.522-.3,1.979,1.979,0,0,1-.373-.448,1.782,1.782,0,0,1-.149-.672,1.261,1.261,0,0,1,.224-.746,1,1,0,0,1,.522-.448,1.261,1.261,0,0,1,.746-.224,2.8,2.8,0,0,1,.746-.075,3.061,3.061,0,0,1,.821.075,1.844,1.844,0,0,1,.672.3,1.744,1.744,0,0,1,.522.522,1.261,1.261,0,0,1,.224.746H65.109a1.177,1.177,0,0,0-.373-.6,2.179,2.179,0,0,0-.672-.149h-.3c-.149,0-.224.075-.3.075,0-.075-.075-.075-.149,0s-.075.149-.075.3a.57.57,0,0,0,.149.373,1.631,1.631,0,0,0,.373.224c.149.075.373.075.6.149s.448.075.672.149.448.075.672.149a2.235,2.235,0,0,1,.6.3,1.979,1.979,0,0,1,.373.448,1.6,1.6,0,0,1-.075,1.493,2.012,2.012,0,0,1-.6.522,3.119,3.119,0,0,1-.746.3,3.347,3.347,0,0,1-.821.075,3.781,3.781,0,0,1-.97-.149,2.334,2.334,0,0,1-.746-.373,2.012,2.012,0,0,1-.522-.6,1.5,1.5,0,0,1-.224-.821h1.119Z" transform="translate(-52.273 -15.487)"/><path class="a" d="M69.549,17.649h1.119V18.4h0a1.464,1.464,0,0,1,.672-.672,2.066,2.066,0,0,1,.97-.224,2.492,2.492,0,0,1,1.119.224,3.314,3.314,0,0,1,.821.6,2.522,2.522,0,0,1,.448.9,5.761,5.761,0,0,1,.149,1.119,4.4,4.4,0,0,1-.149,1.045,1.7,1.7,0,0,1-.448.9,1.9,1.9,0,0,1-.746.6,2.384,2.384,0,0,1-1.045.224,1.27,1.27,0,0,1-.522-.075,1.384,1.384,0,0,1-.522-.149,1.561,1.561,0,0,1-.448-.3c-.149-.075-.224-.224-.373-.373h0v2.687H69.4V17.649Zm4.179,2.761a2.8,2.8,0,0,0-.075-.746,1.5,1.5,0,0,0-.3-.6l-.448-.448a1.782,1.782,0,0,0-.672-.149,1.178,1.178,0,0,0-1.119.522,2.655,2.655,0,0,0-.373,1.418,2.3,2.3,0,0,0,.075.746,1.5,1.5,0,0,0,.3.6,1.979,1.979,0,0,0,.448.373,1.586,1.586,0,0,0,1.343,0,.871.871,0,0,0,.448-.448,1.5,1.5,0,0,0,.3-.6A2.066,2.066,0,0,0,73.728,20.41Z" transform="translate(-54.176 -15.41)"/><path class="a" d="M80.561,23.272a3.094,3.094,0,0,1-1.194-.224,3.75,3.75,0,0,1-.9-.6,1.791,1.791,0,0,1-.522-.9,2.9,2.9,0,0,1-.149-1.119,4.517,4.517,0,0,1,.149-1.119,2.581,2.581,0,0,1,.522-.9,2.684,2.684,0,0,1,.9-.6,3.3,3.3,0,0,1,2.388,0,3.75,3.75,0,0,1,.9.6,1.791,1.791,0,0,1,.522.9,2.9,2.9,0,0,1,.149,1.119,4.517,4.517,0,0,1-.149,1.119,2.58,2.58,0,0,1-.522.9,2.684,2.684,0,0,1-.9.6A3.094,3.094,0,0,1,80.561,23.272Zm0-.97a1.49,1.49,0,0,0,.672-.149.673.673,0,0,0,.448-.448,1.5,1.5,0,0,0,.3-.6,2.066,2.066,0,0,0,.075-.672,2.066,2.066,0,0,0-.075-.672,1.5,1.5,0,0,0-.3-.6l-.448-.448a2.179,2.179,0,0,0-.672-.149,1.49,1.49,0,0,0-.672.149.673.673,0,0,0-.448.448,1.5,1.5,0,0,0-.3.6,2.066,2.066,0,0,0-.075.672,2.066,2.066,0,0,0,.075.672,1.5,1.5,0,0,0,.3.6l.448.448A1.49,1.49,0,0,0,80.561,22.3Z" transform="translate(-56.307 -15.436)"/><path class="a" d="M86.5,17.675h1.119V18.5h0a1.634,1.634,0,0,1,.746-.672,2.066,2.066,0,0,1,.97-.224,2.152,2.152,0,0,1,1.418.448,1.661,1.661,0,0,1,.522,1.418V23.2H90.082V19.764c0-.448-.075-.746-.3-.9a.93.93,0,0,0-.821-.3,1.107,1.107,0,0,0-.522.075.745.745,0,0,0-.373.3c-.075.149-.224.3-.3.448a1.27,1.27,0,0,0-.075.522v3.209H86.5Z" transform="translate(-58.515 -15.436)"/><path class="a" d="M95.57,14.7h1.418L95.5,16.193h-.9Zm-.97,7.687V16.939h1.194v5.448Z" transform="translate(-60.57 -14.7)"/><path class="a" d="M97.2,17.7h1.343l1.343,4.179h0L101.23,17.7H102.5l-1.94,5.448H99.215Z" transform="translate(-61.23 -15.461)"/><path class="a" d="M106.119,20.785a1.455,1.455,0,0,0,.075.6,1.2,1.2,0,0,0,.3.522,1.978,1.978,0,0,0,.448.373,1.49,1.49,0,0,0,.672.149,1.341,1.341,0,0,0,.821-.224,1.087,1.087,0,0,0,.448-.672H110a3.638,3.638,0,0,1-.3.821,4.266,4.266,0,0,1-.522.6,2.334,2.334,0,0,1-.746.373,3.174,3.174,0,0,1-.821.149,2.492,2.492,0,0,1-1.119-.224,2.116,2.116,0,0,1-.821-.6,2.581,2.581,0,0,1-.522-.9A2.9,2.9,0,0,1,105,20.636a5.76,5.76,0,0,1,.149-1.119,2.581,2.581,0,0,1,.522-.9,2.116,2.116,0,0,1,.821-.6,2.492,2.492,0,0,1,1.119-.224,1.8,1.8,0,0,1,1.119.3,2.486,2.486,0,0,1,.821.672,3.418,3.418,0,0,1,.522,1.045,3.13,3.13,0,0,1,.075,1.194h-4.03Zm2.761-.821a1.079,1.079,0,0,0-.149-.522,1.561,1.561,0,0,0-.3-.448.951.951,0,0,0-.448-.3,1.384,1.384,0,0,0-.522-.149,1.643,1.643,0,0,0-.6.075.951.951,0,0,0-.448.3,1.561,1.561,0,0,0-.3.448,1.406,1.406,0,0,0-.149.6Z" transform="translate(-63.209 -15.487)"/><path class="a" d="M113.1,15h1.194v7.463H113.1Z" transform="translate(-65.264 -14.776)"/><path class="a" d="M120.3,17.675h1.119V18.5h0a1.633,1.633,0,0,1,.746-.672,2.066,2.066,0,0,1,.97-.224,2.152,2.152,0,0,1,1.418.448,1.661,1.661,0,0,1,.522,1.418V23.2h-1.194V19.764c0-.448-.075-.746-.3-.9a.93.93,0,0,0-.821-.3,1.107,1.107,0,0,0-.522.075.745.745,0,0,0-.373.3c-.075.149-.224.3-.3.448a1.27,1.27,0,0,0-.075.522v3.209H120.3Z" transform="translate(-67.091 -15.436)"/><path class="a" d="M132.9,21.954c0,.149,0,.224.075.3a.274.274,0,0,0,.224.075h.3v.821c-.075,0-.075,0-.149.075a.274.274,0,0,0-.224.075h-.373a1.406,1.406,0,0,1-.6-.149.628.628,0,0,1-.3-.522,2.581,2.581,0,0,1-.9.522,5.136,5.136,0,0,1-.97.149,2.066,2.066,0,0,1-.672-.075,1.5,1.5,0,0,1-.6-.3,1.339,1.339,0,0,1-.373-.522,2.179,2.179,0,0,1-.149-.672,2.683,2.683,0,0,1,.149-.821,3.245,3.245,0,0,1,.448-.522,1.2,1.2,0,0,1,.672-.224c.224-.075.522-.075.746-.149a1.855,1.855,0,0,1,.6-.075c.224,0,.373-.075.522-.075.149-.075.3-.075.373-.224a.57.57,0,0,0,.149-.373.559.559,0,0,0-.075-.373,1.03,1.03,0,0,0-.3-.224.559.559,0,0,0-.373-.075h-.373a1.5,1.5,0,0,0-.821.224.784.784,0,0,0-.373.672h-1.194a1.592,1.592,0,0,1,.224-.9,1.035,1.035,0,0,1,.6-.522,2.235,2.235,0,0,1,.746-.3,3.633,3.633,0,0,1,.9-.075,3.061,3.061,0,0,1,.821.075,1.844,1.844,0,0,1,.672.3,1.743,1.743,0,0,1,.522.522,1.261,1.261,0,0,1,.224.746v2.612Zm-1.194-1.567a.912.912,0,0,1-.672.224c-.3,0-.522.075-.821.075-.149,0-.224.075-.373.075-.149.075-.224.075-.3.149a1.031,1.031,0,0,0-.224.3.559.559,0,0,0-.075.373.388.388,0,0,0,.149.3,1.03,1.03,0,0,0,.3.224.559.559,0,0,0,.373.075h.373a.947.947,0,0,0,.448-.075,1.061,1.061,0,0,0,.448-.149c.149-.075.224-.224.373-.3a1.061,1.061,0,0,0,.149-.448v-.821Z" transform="translate(-69.095 -15.461)"/></g></svg>