<svg xmlns="http://www.w3.org/2000/svg" width="200" height="37.253" viewBox="0 0 200 37.253"><defs><style>.a{fill:#250048;}.b{fill:#f9386a;}</style></defs><g transform="translate(-81.879 -54.558)"><path class="a" d="M205.53,47.525a4.482,4.482,0,0,0,4.41-4.7,4.42,4.42,0,1,0-8.82-.042A4.467,4.467,0,0,0,205.53,47.525Zm0-13.44a8.416,8.416,0,0,1,8.694,8.736,8.694,8.694,0,1,1-17.388-.042A8.453,8.453,0,0,1,205.53,34.085Zm41.5,13.44a4.482,4.482,0,0,0,4.41-4.7,4.42,4.42,0,1,0-8.82-.042A4.467,4.467,0,0,0,247.025,47.525Zm0-13.44a8.416,8.416,0,0,1,8.694,8.736,8.694,8.694,0,1,1-17.388-.042A8.453,8.453,0,0,1,247.025,34.085ZM150.763,32.4a2.572,2.572,0,0,0,2.562-2.562,2.536,2.536,0,0,0-2.562-2.52,2.541,2.541,0,1,0,0,5.082ZM169.2,42.821a4.453,4.453,0,0,0-4.578-4.746c-2.73,0-4.452,2.058-4.452,4.746a4.415,4.415,0,0,0,4.452,4.7A4.491,4.491,0,0,0,169.2,42.821Zm-5.586,8.694c-4.2,0-7.77-3.7-7.77-8.736,0-4.956,3.4-8.694,7.77-8.694a6.77,6.77,0,0,1,5.628,2.436V34.463h4.2V51.136h-4.2V49.12A6.975,6.975,0,0,1,163.615,51.515Zm-71.651-18.1L76.131,39.965v4.914l12.1-5a13.845,13.845,0,1,1-13.86-14.406A10.779,10.779,0,0,1,81.8,27.869l4.914-2.058a16.543,16.543,0,0,0-12.306-5A18.627,18.627,0,1,0,92.972,39.461,18.272,18.272,0,0,0,91.964,33.413Zm131,14.952,2.436-2.73a6.451,6.451,0,0,0,4.62,2.184c1.218,0,2.1-.42,2.1-1.3,0-1.008-.5-1.386-2.73-2.226-3.822-1.428-5.46-2.562-5.46-5.376,0-2.688,2.6-4.83,6.3-4.83a8.072,8.072,0,0,1,5.964,2.394l-2.1,2.646a5.461,5.461,0,0,0-3.78-1.47c-1.386,0-2.058.546-2.058,1.3,0,1.134,1.176,1.26,3.444,2.226,3.024,1.3,4.872,2.352,4.872,5.292,0,2.856-2.184,5.04-6.384,5.04A9.417,9.417,0,0,1,222.96,48.364Zm-1.932,2.772H216.7V27.911h4.326ZM181.38,42.779a4.453,4.453,0,0,0,4.578,4.746c2.73,0,4.452-2.058,4.452-4.746a4.416,4.416,0,0,0-4.452-4.7A4.491,4.491,0,0,0,181.38,42.779Zm5.586-8.694c4.2,0,7.77,3.7,7.77,8.736,0,4.956-3.318,8.694-7.77,8.694a6.862,6.862,0,0,1-5.628-2.394v2.016H177.18V27.911h4.284v8.484A6.786,6.786,0,0,1,186.966,34.085ZM152.905,51.136h-4.326V34.463h4.326ZM129.6,43.7v-9.24h4.326V43.7c0,2.52,1.344,3.906,3.444,3.906,2.058,0,3.444-1.386,3.444-3.906v-9.24h4.326V43.7c0,5.082-3.024,7.812-7.77,7.812S129.6,48.784,129.6,43.7Zm-13.482,7.812c-6.846,0-11.424-4.914-11.424-11.634a11.3,11.3,0,0,1,11.634-11.718,12.447,12.447,0,0,1,8.9,3.738l-2.772,3.066a8.425,8.425,0,0,0-6.132-2.436c-4.032,0-6.972,2.94-6.972,7.392,0,4.032,2.73,7.224,6.888,7.224a8.256,8.256,0,0,0,5.712-2.058V42.023h-5.88V38.075h10.164v9.114A13.93,13.93,0,0,1,116.114,51.515Z" transform="translate(26.16 33.745)"/><path class="b" d="M169.62,43.58l-16.842,6.972v4.914l16.842-6.972Z" transform="translate(-50.488 15.765)"/></g></svg>