<svg xmlns="http://www.w3.org/2000/svg" width="140.673" height="50" viewBox="0 0 140.673 50"><defs><style>.a{fill:#fff;}.b{fill:#e73c6b;}</style></defs><g transform="translate(0 0)"><g transform="translate(42.164 18.731)"><path class="a" d="M69.758,32.239a5.854,5.854,0,0,1-1.642,4.4,6.52,6.52,0,0,1-4.851,1.94,6.889,6.889,0,0,1-4.851-1.94A6.534,6.534,0,0,1,56.4,31.791a6.916,6.916,0,0,1,9.552-6.269,5.354,5.354,0,0,1,2.09,1.493l-1.119,1.119a4.481,4.481,0,0,0-3.582-1.567,5.1,5.1,0,0,0-5.075,5.3,5.1,5.1,0,0,0,5.075,5.3A4.949,4.949,0,0,0,67,35.672a4.241,4.241,0,0,0,1.119-2.687H63.34V31.418h6.343A2.8,2.8,0,0,1,69.758,32.239Z" transform="translate(-56.4 -25)"/><g transform="translate(14.096 4.03)"><path class="a" d="M76.566,31.743A4.388,4.388,0,0,1,79.85,30.4a4.276,4.276,0,0,1,3.284,1.343A4.558,4.558,0,0,1,84.4,35.176a5,5,0,0,1-1.269,3.433,4.388,4.388,0,0,1-3.284,1.343,4.276,4.276,0,0,1-3.284-1.343A4.558,4.558,0,0,1,75.3,35.176,4.49,4.49,0,0,1,76.566,31.743Zm1.269,5.821a2.886,2.886,0,0,0,4.179,0,3.151,3.151,0,0,0,.9-2.388,3.267,3.267,0,0,0-.9-2.388,2.886,2.886,0,0,0-4.179,0,3.151,3.151,0,0,0-.9,2.388A3.267,3.267,0,0,0,77.835,37.564Z" transform="translate(-75.289 -30.4)"/></g><g transform="translate(23.881 4.03)"><path class="a" d="M89.669,31.743A4.388,4.388,0,0,1,92.952,30.4a4.276,4.276,0,0,1,3.284,1.343A4.558,4.558,0,0,1,97.5,35.176a5,5,0,0,1-1.269,3.433,4.388,4.388,0,0,1-3.284,1.343,4.276,4.276,0,0,1-3.284-1.343A4.559,4.559,0,0,1,88.4,35.176,5.132,5.132,0,0,1,89.669,31.743Zm1.269,5.821a2.886,2.886,0,0,0,4.179,0,3.151,3.151,0,0,0,.9-2.388,3.267,3.267,0,0,0-.9-2.388,2.886,2.886,0,0,0-4.179,0,3.151,3.151,0,0,0-.9,2.388A3.267,3.267,0,0,0,90.937,37.564Z" transform="translate(-88.4 -30.4)"/></g><g transform="translate(33.731 4.03)"><path class="a" d="M105.928,43.907a4.2,4.2,0,0,1-2.612-.821A4.582,4.582,0,0,1,101.9,41.3l1.567-.672a2.186,2.186,0,0,0,.97,1.194A2.814,2.814,0,0,0,106,42.34a2.986,2.986,0,0,0,2.164-.821,3.17,3.17,0,0,0,.821-2.239v-.9h-.075a3.133,3.133,0,0,1-1.269,1.119,3.545,3.545,0,0,1-1.791.448,3.865,3.865,0,0,1-2.985-1.343,5,5,0,0,1-1.269-3.433,5.132,5.132,0,0,1,1.269-3.433,3.978,3.978,0,0,1,2.985-1.343,3.545,3.545,0,0,1,1.791.448,3.715,3.715,0,0,1,1.269,1.119h.075V30.7h1.642v8.507a4.447,4.447,0,0,1-1.343,3.507A4.88,4.88,0,0,1,105.928,43.907Zm.149-5.448a2.555,2.555,0,0,0,2.015-.9,3.426,3.426,0,0,0,.821-2.388,3.56,3.56,0,0,0-.821-2.388,2.555,2.555,0,0,0-2.015-.9,2.784,2.784,0,0,0-2.015.9,3.114,3.114,0,0,0-.821,2.388,3.56,3.56,0,0,0,.821,2.388A2.784,2.784,0,0,0,106.078,38.46Z" transform="translate(-101.6 -30.4)"/></g><g transform="translate(44.254 0.149)"><path class="a" d="M117.416,38.334H115.7V25.2h1.716Z" transform="translate(-115.7 -25.2)"/></g><g transform="translate(47.015 4.03)"><path class="a" d="M123.952,39.952a4.276,4.276,0,0,1-3.284-1.343,4.865,4.865,0,0,1-1.269-3.433,4.809,4.809,0,0,1,1.269-3.358A3.892,3.892,0,0,1,123.8,30.4a4.327,4.327,0,0,1,3.209,1.269,4.886,4.886,0,0,1,1.194,3.507v.3h-7.09a3.381,3.381,0,0,0,.9,2.164,2.71,2.71,0,0,0,1.94.821,2.455,2.455,0,0,0,2.463-1.567l1.493.6a3.919,3.919,0,0,1-1.418,1.716A4.236,4.236,0,0,1,123.952,39.952Zm2.388-5.821a2.676,2.676,0,0,0-.672-1.493,2.551,2.551,0,0,0-1.94-.672,2.608,2.608,0,0,0-1.642.6,3.315,3.315,0,0,0-.97,1.567Z" transform="translate(-119.4 -30.4)"/></g><g transform="translate(60.672 0.149)"><path class="a" d="M139.416,38.334H137.7V25.2h4.478a4.184,4.184,0,0,1,2.91,1.119,3.515,3.515,0,0,1,1.194,2.761,3.413,3.413,0,0,1-1.194,2.761,4.184,4.184,0,0,1-2.91,1.119h-2.761Zm0-6.94h2.836a2.271,2.271,0,0,0,1.716-3.881,2.3,2.3,0,0,0-1.716-.746h-2.836Z" transform="translate(-137.7 -25.2)"/></g><g transform="translate(70.373 0.149)"><path class="a" d="M152.416,38.334H150.7V25.2h1.716Z" transform="translate(-150.7 -25.2)"/></g><g transform="translate(73.06 4.104)"><path class="a" d="M157.658,39.978a3.7,3.7,0,0,1-2.388-.821,2.592,2.592,0,0,1-.97-2.164,2.8,2.8,0,0,1,1.119-2.313,4.9,4.9,0,0,1,2.836-.821,5.008,5.008,0,0,1,2.463.522v-.224a1.927,1.927,0,0,0-.672-1.567,2.608,2.608,0,0,0-1.642-.6,2.793,2.793,0,0,0-1.343.373,1.765,1.765,0,0,0-.821.97l-1.567-.672a3.65,3.65,0,0,1,1.194-1.493,3.936,3.936,0,0,1,2.388-.672,4.149,4.149,0,0,1,2.836,1.045,3.655,3.655,0,0,1,1.119,2.836v5.448h-1.642V38.56h-.075A3.243,3.243,0,0,1,157.658,39.978Zm.224-1.493a2.591,2.591,0,0,0,1.866-.746,2.294,2.294,0,0,0,.821-1.866,3.4,3.4,0,0,0-2.164-.6,2.781,2.781,0,0,0-1.866.522,1.485,1.485,0,0,0-.6,1.269,1.191,1.191,0,0,0,.6,1.045A3.041,3.041,0,0,0,157.882,38.485Z" transform="translate(-154.3 -30.5)"/></g><g transform="translate(81.343 4.254)"><path class="a" d="M168.758,43.685h-1.716l2.09-4.552L165.4,30.7h1.866l2.687,6.418h0l2.612-6.418h1.866Z" transform="translate(-165.4 -30.7)"/></g></g><g transform="translate(10.821 10.821)"><g transform="translate(0 0.381)"><path class="b" d="M14.4,28.933V16.4a1.741,1.741,0,0,1,.448-1.343c.149-.149.224-.224.448,0,2.836,2.91,5.672,5.746,8.507,8.657,1.866,1.866,3.657,3.731,5.522,5.6.149.149.224.3,0,.448L15.893,43.186c-.3.3-.448.224-.746.075a1.838,1.838,0,0,1-.672-1.418V34.38c-.075-1.94-.075-3.657-.075-5.448Z" transform="translate(-14.4 -14.911)"/></g><g transform="translate(1.567)"><path class="b" d="M16.5,14.4a1.341,1.341,0,0,1,.821.224L34.56,24.251c.3.149.224.224.075.448L30.828,28.5c-.149.149-.224.224-.373,0-4.627-4.627-9.179-9.254-13.806-13.881C16.649,14.549,16.575,14.475,16.5,14.4Z" transform="translate(-16.5 -14.4)"/></g><g transform="translate(2.91 15.624)"><path class="b" d="M18.3,48.145c4.179-4.179,8.358-8.433,12.463-12.612.224-.3.373-.224.6,0,1.045,1.119,2.164,2.164,3.209,3.284.224.224.224.3-.075.373C29.121,42.1,23.822,45.085,18.449,48Z" transform="translate(-18.3 -35.336)"/></g><g transform="translate(16.306 10.623)"><path class="b" d="M46.66,32.564a1.191,1.191,0,0,1-.6,1.045c-.224.149-.522.3-.821.522-1.642.9-3.209,1.791-4.851,2.687-.224.149-.373.149-.522-.075-1.119-1.194-2.313-2.388-3.507-3.507a.28.28,0,0,1,0-.448l4.03-4.03a.352.352,0,0,1,.448-.075c1.567.9,3.209,1.791,4.776,2.687A1.432,1.432,0,0,1,46.66,32.564Z" transform="translate(-36.25 -28.634)"/></g></g><g transform="translate(42.388 10.075)"><path class="a" d="M56.7,13.6h1.791a3.207,3.207,0,0,1,.9.149,4.139,4.139,0,0,1,.6.448,3.025,3.025,0,0,1,.373.672,3.174,3.174,0,0,1,.149.821,3.746,3.746,0,0,1-.149.9,1.443,1.443,0,0,1-.373.672,1.161,1.161,0,0,1-.6.448,1.616,1.616,0,0,1-.9.149H56.7Zm.746,3.806h.746a2.208,2.208,0,0,0,.746-.149,1.148,1.148,0,0,0,.448-.3,3.638,3.638,0,0,0,.224-.522,1.643,1.643,0,0,0,.075-.6,1.455,1.455,0,0,0-.075-.6,3.638,3.638,0,0,0-.224-.522.685.685,0,0,0-.448-.3,2.208,2.208,0,0,0-.746-.149h-.746Z" transform="translate(-56.7 -13.451)"/><path class="a" d="M62.6,13.6h.672v.672H62.6Zm0,1.194h.672V18H62.6Z" transform="translate(-58.197 -13.451)"/><path class="a" d="M64.9,17.339a.451.451,0,0,0,.224.448,1.079,1.079,0,0,0,.522.149h.224a.274.274,0,0,0,.224-.075.161.161,0,0,0,.149-.149.373.373,0,0,0,0-.448c-.075-.075-.149-.075-.224-.149-.075,0-.224-.075-.3-.075-.149,0-.224-.075-.373-.075s-.224-.075-.373-.075c-.149-.075-.224-.075-.3-.149a1.03,1.03,0,0,1-.224-.3.559.559,0,0,1-.075-.373,1.061,1.061,0,0,1,.149-.448c.075-.149.224-.224.3-.3a1.061,1.061,0,0,1,.448-.149c.149,0,.3-.075.448-.075a.947.947,0,0,1,.448.075.57.57,0,0,1,.373.149.583.583,0,0,1,.3.3,1.061,1.061,0,0,1,.149.448h-.746a.41.41,0,0,0-.224-.373.808.808,0,0,0-.448-.075h-.149a.274.274,0,0,0-.224.075c-.075,0-.075.075-.149.075-.075.075-.075.075-.075.149a.274.274,0,0,0,.075.224c.075.075.149.075.224.149.075,0,.224.075.3.075.149,0,.224.075.373.075s.224.075.373.075c.149.075.224.075.3.149a1.03,1.03,0,0,1,.224.3.559.559,0,0,1,.075.373.631.631,0,0,1-.149.448.745.745,0,0,1-.373.3,1.061,1.061,0,0,1-.448.149c-.149,0-.3.075-.522.075a1.107,1.107,0,0,1-.522-.075l-.448-.224a.745.745,0,0,1-.3-.373A4.754,4.754,0,0,1,64,17.115h.9Z" transform="translate(-58.552 -13.831)"/><path class="a" d="M68.8,15.175h.672v.448h0a.764.764,0,0,1,.448-.373,1.756,1.756,0,0,1,.6-.149,2.179,2.179,0,0,1,.672.149.764.764,0,0,1,.448.373,1.2,1.2,0,0,1,.3.522,2.066,2.066,0,0,1,.075.672,1.455,1.455,0,0,1-.075.6c-.075.149-.149.373-.224.522-.149.149-.224.3-.448.373a1.406,1.406,0,0,1-.6.149h-.3c-.075,0-.224-.075-.3-.075-.075-.075-.149-.075-.3-.149l-.224-.224h0v1.567h-.672v-4.4Zm2.463,1.642a.947.947,0,0,0-.075-.448c0-.149-.075-.224-.149-.373-.075-.075-.149-.224-.3-.224a.559.559,0,0,0-.373-.075.727.727,0,0,0-.672.3,1.341,1.341,0,0,0-.224.821.946.946,0,0,0,.075.448c.075.149.075.224.149.373a1.03,1.03,0,0,0,.3.224.97.97,0,0,0,.746,0c.075-.075.224-.149.3-.224a.57.57,0,0,0,.149-.373A1.313,1.313,0,0,0,71.263,16.816Z" transform="translate(-59.77 -13.831)"/><path class="a" d="M75.267,18.433a2.179,2.179,0,0,1-.672-.149,1.339,1.339,0,0,1-.522-.373,1.2,1.2,0,0,1-.3-.522,2.066,2.066,0,0,1-.075-.672,2.066,2.066,0,0,1,.075-.672,1.2,1.2,0,0,1,.3-.522,1.339,1.339,0,0,1,.522-.373,1.586,1.586,0,0,1,1.343,0,1.339,1.339,0,0,1,.522.373,1.2,1.2,0,0,1,.3.522,2.066,2.066,0,0,1,.075.672,2.066,2.066,0,0,1-.075.672,1.2,1.2,0,0,1-.3.522,1.339,1.339,0,0,1-.522.373A1.782,1.782,0,0,1,75.267,18.433Zm0-.522a.559.559,0,0,0,.373-.075,1.03,1.03,0,0,0,.3-.224.57.57,0,0,0,.149-.373c0-.149.075-.3.075-.448a.559.559,0,0,0-.075-.373c0-.149-.075-.224-.149-.373-.075-.075-.149-.224-.3-.224a.673.673,0,0,0-.373-.075.559.559,0,0,0-.373.075,1.03,1.03,0,0,0-.3.224.57.57,0,0,0-.149.373,3.232,3.232,0,0,1-.075.373.946.946,0,0,0,.075.448c0,.149.075.224.149.373.075.075.149.224.3.224A3.232,3.232,0,0,0,75.267,17.91Z" transform="translate(-61.013 -13.806)"/><path class="a" d="M78.8,15.149h.672V15.6h0a1.267,1.267,0,0,1,.448-.448,1.406,1.406,0,0,1,.6-.149,1.019,1.019,0,0,1,.821.3.93.93,0,0,1,.3.821v2.164h-.672V16.269a.87.87,0,0,0-.149-.522c-.075-.149-.224-.149-.448-.149-.149,0-.224,0-.3.075s-.149.075-.224.149a.388.388,0,0,0-.149.3c0,.075-.075.224-.075.3v1.866h-.672V15.149Z" transform="translate(-62.307 -13.806)"/><path class="a" d="M84.1,13.4h.821l-.9.9H83.5Zm-.6,4.552V14.743h.672v3.209Z" transform="translate(-63.5 -13.4)"/><path class="a" d="M85.1,15.2h.746l.821,2.463h0l.746-2.463h.746L87.04,18.409h-.821Z" transform="translate(-63.906 -13.857)"/><path class="a" d="M90.272,16.966a.673.673,0,0,0,.075.373.388.388,0,0,0,.149.3,1.03,1.03,0,0,0,.3.224.559.559,0,0,0,.373.075,1.079,1.079,0,0,0,.522-.149.745.745,0,0,0,.3-.373h.672a.645.645,0,0,1-.224.448c-.075.149-.224.224-.3.373l-.448.224a1.107,1.107,0,0,1-.522.075,2.179,2.179,0,0,1-.672-.149,1.339,1.339,0,0,1-.522-.373,1.2,1.2,0,0,1-.3-.522,2.066,2.066,0,0,1-.075-.672,2.066,2.066,0,0,1,.075-.672,1.2,1.2,0,0,1,.3-.522,1.979,1.979,0,0,1,.448-.373,1.782,1.782,0,0,1,.672-.149,2.179,2.179,0,0,1,.672.149,1,1,0,0,1,.522.448,1.5,1.5,0,0,1,.3.6,2.066,2.066,0,0,1,.075.672Zm1.642-.448a.449.449,0,0,0-.075-.3c-.075-.075-.075-.224-.149-.3s-.149-.149-.224-.149a.449.449,0,0,0-.3-.075.673.673,0,0,0-.373.075c-.075.075-.224.075-.224.149a.388.388,0,0,0-.149.3.449.449,0,0,0-.075.3Z" transform="translate(-65.048 -13.831)"/><path class="a" d="M94.4,13.6h.672V18H94.4Z" transform="translate(-66.266 -13.451)"/><path class="a" d="M98.7,15.149h.672V15.6h0a1.267,1.267,0,0,1,.448-.448,1.406,1.406,0,0,1,.6-.149,1.019,1.019,0,0,1,.821.3.93.93,0,0,1,.3.821v2.164h-.672V16.269a.87.87,0,0,0-.149-.522c-.075-.149-.224-.149-.448-.149-.149,0-.224,0-.3.075s-.149.075-.224.149a.388.388,0,0,0-.149.3c0,.075-.075.224-.075.3v1.866h-.672V15.149Z" transform="translate(-67.357 -13.806)"/><path class="a" d="M106.01,17.587v.149a.261.261,0,0,0,.149.075h.149v.522h-.448a.559.559,0,0,1-.373-.075.388.388,0,0,1-.149-.3,1.2,1.2,0,0,1-.522.3,1.643,1.643,0,0,1-.6.075.947.947,0,0,1-.448-.075c-.149-.075-.224-.075-.373-.149a1.03,1.03,0,0,1-.224-.3.808.808,0,0,1-.075-.448c0-.224,0-.373.075-.448a.583.583,0,0,1,.3-.3c.149-.075.224-.149.373-.149s.3-.075.448-.075.224-.075.373-.075.224,0,.3-.075c.075,0,.149-.075.224-.149a.373.373,0,0,0,0-.448l-.149-.149c-.075,0-.149-.075-.224-.075h-.224a1.079,1.079,0,0,0-.522.149.41.41,0,0,0-.224.373h-.672a1.079,1.079,0,0,1,.149-.522c.075-.149.224-.224.3-.3a1.061,1.061,0,0,1,.448-.149c.149,0,.373-.075.522-.075a.947.947,0,0,1,.448.075,1.061,1.061,0,0,1,.448.149.583.583,0,0,1,.3.3.808.808,0,0,1,.075.448v1.716Zm-.672-.821a.57.57,0,0,1-.373.149.946.946,0,0,0-.448.075.274.274,0,0,0-.224.075.261.261,0,0,0-.149.075l-.149.149c0,.075-.075.149-.075.224a.274.274,0,0,0,.075.224l.149.149c.075,0,.149.075.224.075h.448c.075,0,.149-.075.224-.075l.224-.224c.075-.075.075-.149.075-.3v-.6Z" transform="translate(-68.473 -13.781)"/></g><g transform="translate(0 0)"><path class="a" d="M133.93,49.9H6.616A6.736,6.736,0,0,1-.1,43.184V6.616A6.736,6.736,0,0,1,6.616-.1H133.856a6.736,6.736,0,0,1,6.716,6.716V43.184A6.672,6.672,0,0,1,133.93,49.9ZM6.616,1.542a5,5,0,0,0-5,5V43.109a5,5,0,0,0,5,5H133.856a5,5,0,0,0,5-5V6.542a5,5,0,0,0-5-5Z" transform="translate(0.1 0.1)"/></g></g></svg>