<svg xmlns="http://www.w3.org/2000/svg" width="25" height="25" viewBox="0 0 25 25"><defs><style>.a,.b{fill:#fff;}.b{fill-rule:evenodd;}</style></defs><g transform="translate(-739.906 -382.996)"><path class="a" d="M740.01,395.384a12.323,12.323,0,0,0,1.662,6.193L739.906,408l6.6-1.723a12.482,12.482,0,0,0,5.948,1.508h.005a12.437,12.437,0,0,0,12.448-12.388A12.42,12.42,0,0,0,752.458,383a12.435,12.435,0,0,0-12.448,12.387m3.93,5.87-.246-.389a10.232,10.232,0,0,1-1.581-5.48,10.355,10.355,0,0,1,17.664-7.276,10.21,10.21,0,0,1,3.028,7.284,10.336,10.336,0,0,1-10.346,10.3h0a10.366,10.366,0,0,1-5.266-1.435l-.378-.223-3.916,1.022Zm8.518,6.528h0m0,0h0" transform="translate(0 0)"/><path class="b" d="M882.016,530.684c-.21-.515-.431-.526-.631-.535-.163-.008-.35-.007-.537-.007a.988.988,0,0,0-.747.387,3.631,3.631,0,0,0-.981,2.581,6.362,6.362,0,0,0,1.144,3.2c.14.206,1.939,3.431,4.787,4.672,2.367,1.031,2.849.826,3.363.774a2.5,2.5,0,0,0,2.055-2.943c-.07-.129-.257-.206-.537-.361s-1.658-.9-1.915-1.007-.444-.155-.631.155-.724,1.007-.887,1.213-.327.232-.607.078a7.545,7.545,0,0,1-2.254-1.536,9.252,9.252,0,0,1-1.559-2.143.478.478,0,0,1,.123-.632c.126-.139.28-.362.421-.542a2.181,2.181,0,0,0,.28-.516.622.622,0,0,0-.023-.542c-.07-.155-.615-1.685-.864-2.3" transform="translate(-132.589 -140.409)"/></g></svg>