<svg xmlns="http://www.w3.org/2000/svg" width="66" height="93.789" viewBox="0 0 66 93.789"><defs><style>.a{fill:#4b4b4b;}</style></defs><g transform="translate(-7 -3)"><path class="a" d="M16.852,25.413H22.8V18.561h6.852V12.617H22.8V5.765H16.852v6.852H10v5.944h6.852Z" transform="translate(7.421 6.839)"/><rect class="a" width="45.158" height="3.474" transform="translate(17.421 79.421)"/><rect class="a" width="45.158" height="3.474" transform="translate(17.421 69)"/><rect class="a" width="45.158" height="3.474" transform="translate(17.421 37.737)"/><path class="a" d="M52.158,3h-38.2A6.964,6.964,0,0,0,7,9.972V89.818a6.948,6.948,0,0,0,6.937,6.972H66.063A6.941,6.941,0,0,0,73,89.873V27.316Zm0,5.211L68.484,27.316H55.621a3.5,3.5,0,0,1-3.463-3.5ZM69.526,89.866a3.463,3.463,0,0,1-3.474,3.449H13.947a3.483,3.483,0,0,1-3.474-3.456V9.93a3.48,3.48,0,0,1,3.46-3.456H48.684V23.821a6.929,6.929,0,0,0,6.94,6.968h13.9Z" transform="translate(0 0)"/><rect class="a" width="45.158" height="3.474" transform="translate(17.421 48.158)"/><rect class="a" width="45.158" height="3.474" transform="translate(17.421 58.579)"/></g></svg>