<svg xmlns="http://www.w3.org/2000/svg" width="128.15" height="135.05" viewBox="0 0 128.15 135.05"><defs><style>.a{fill:#4b4b4b;}.b{fill:#fff;}</style></defs><g transform="translate(-1583.321 -1200.28)"><circle class="a" cx="32.5" cy="32.5" r="32.5" transform="translate(1583.321 1200.28)"/><path class="b" d="M1632.655,1232.829a17.21,17.21,0,0,1-25.488,14.928l-9.512,3.023,3.1-9.147a16.878,16.878,0,0,1-2.465-8.8,17.183,17.183,0,0,1,34.364,0Zm-17.182-14.334a14.406,14.406,0,0,0-14.446,14.334,14.186,14.186,0,0,0,2.752,8.4l-1.805,5.324,5.551-1.765a14.372,14.372,0,1,0,7.948-26.3Zm8.676,18.261c-.106-.174-.386-.279-.807-.488s-2.493-1.22-2.878-1.359-.668-.209-.948.209-1.088,1.359-1.334,1.638-.491.314-.913.1a11.525,11.525,0,0,1-3.386-2.074,12.6,12.6,0,0,1-2.343-2.893c-.245-.418-.026-.644.185-.852.189-.188.421-.489.632-.732a2.8,2.8,0,0,0,.42-.7.758.758,0,0,0-.035-.732c-.1-.209-.948-2.265-1.3-3.1s-.7-.7-.948-.7-.526-.035-.807-.035a1.557,1.557,0,0,0-1.124.523,4.674,4.674,0,0,0-1.473,3.485,8.076,8.076,0,0,0,1.72,4.322c.21.278,2.912,4.636,7.194,6.309s4.282,1.115,5.054,1.045a4.26,4.26,0,0,0,2.844-1.987A3.477,3.477,0,0,0,1624.149,1236.756Z"/><circle class="a" cx="32.5" cy="32.5" r="32.5" transform="translate(1646.472 1232.78)"/><path class="b" d="M1678.972,1247.78c-9.859,0-17.5,7.222-17.5,16.976a16.606,16.606,0,0,0,5.5,12.556,1.407,1.407,0,0,1,.472,1l.1,3.113a1.4,1.4,0,0,0,1.965,1.24l3.472-1.532a1.4,1.4,0,0,1,.933-.071,19,19,0,0,0,5.067.673c9.859,0,17.5-7.222,17.5-16.975S1688.831,1247.78,1678.972,1247.78Zm10.507,13.064-5.137,8.151a2.628,2.628,0,0,1-3.8.7l-4.088-3.067a1.052,1.052,0,0,0-1.264,0l-5.525,4.194a.831.831,0,0,1-1.2-1.106l5.141-8.155a2.627,2.627,0,0,1,3.8-.7l4.088,3.067a1.053,1.053,0,0,0,1.265,0l5.521-4.19A.831.831,0,0,1,1689.479,1260.844Z"/><circle class="a" cx="32.5" cy="32.5" r="32.5" transform="translate(1586.5 1270.33)"/><path class="b" d="M1636.5,1305.692c0-2.713-2.1-5.087-5.232-6.389a8.563,8.563,0,0,1,.172,1.7c0,5.463-5.164,9.857-12.123,10.67a14.117,14.117,0,0,0,6.414,1.465,15.155,15.155,0,0,0,3.453-.393,10.7,10.7,0,0,0,3.949,2.341,5.99,5.99,0,0,1-1.491-3.171C1634.567,1310.586,1636.5,1308.3,1636.5,1305.692Z"/><path class="b" d="M1606.57,1313.348a.861.861,0,0,1-.65-1.426,6.816,6.816,0,0,0,1.55-2.906c-3.752-1.905-5.97-4.96-5.97-8.273,0-5.609,6.425-10.171,14.321-10.171s14.322,4.562,14.322,10.171-6.425,10.17-14.322,10.17a19.911,19.911,0,0,1-4.061-.414,14.556,14.556,0,0,1-4.908,2.8A.866.866,0,0,1,1606.57,1313.348Zm9.251-21.054c-6.947,0-12.6,3.79-12.6,8.449,0,2.794,2.082,5.41,5.568,7a.862.862,0,0,1,.5.894,7.687,7.687,0,0,1-.5,1.9,11.08,11.08,0,0,0,2.12-1.59.857.857,0,0,1,.8-.22,18.116,18.116,0,0,0,4.12.469c6.948,0,12.6-3.79,12.6-8.448S1622.769,1292.294,1615.821,1292.294Z"/></g></svg>