<svg xmlns="http://www.w3.org/2000/svg" width="125" height="40.286" viewBox="0 0 125 40.286"><defs><style>.a{fill:#4b4b4b;}</style></defs><path class="a" d="M-52.209,320.17v14.866l.268.176a1.289,1.289,0,0,1,.14-.386,10.64,10.64,0,0,1,9.366-3.918c7.5.369,11.888,5.813,12.576,12.7a18.475,18.475,0,0,1-1.11,8.915c-2.359,5.825-7.671,8.334-13.25,7.84-3.442-.3-5.066-1.241-7.864-4.138-.036.029-.1.053-.106.09-.749,2.848-1.979,3.8-4.906,3.8h-3.254c-.023-.333-.06-.624-.06-.914q0-17.374,0-34.748a4.046,4.046,0,0,1,3.887-4.27C-55.141,320.091-53.748,320.17-52.209,320.17Zm-.03,25.622c.061.486.106,1.209.246,1.913a6.9,6.9,0,0,0,6.142,5.783,6.736,6.736,0,0,0,7.309-4.794,9.7,9.7,0,0,0-.087-6.532,6.864,6.864,0,0,0-10.194-3.545C-51.338,340.227-52.152,342.721-52.239,345.792Z" transform="translate(60.412 -320.139)"/><path class="a" d="M339.3,384c7.429-.589,13.2,4.038,14.3,11.415a18.686,18.686,0,0,1-.947,10.073c-2.094,5.068-5.991,7.652-11.394,7.914a29.455,29.455,0,0,1-6.711-.226,11.719,11.719,0,0,1-9.13-7.807,18.113,18.113,0,0,1,.033-13.5A12.236,12.236,0,0,1,336.97,384C337.747,384,338.525,384,339.3,384Zm-1.278,22.541c3.446-.066,5.6-1.445,6.782-4.185a9.354,9.354,0,0,0,.038-7.526c-2.293-5.51-8.083-4.56-10.582-1.469a9.339,9.339,0,0,0,.283,11.335A4.532,4.532,0,0,0,338.024,406.544Z" transform="translate(-260.005 -373.312)"/><path class="a" d="M525.181,387.934c.272-.327.4-.458.5-.605a10.3,10.3,0,0,1,7.927-4.463,10.964,10.964,0,0,1,8.132,1.986,9.772,9.772,0,0,1,3.823,7.74c.147,5.276.089,10.559.047,15.838a3.971,3.971,0,0,1-3.995,3.8c-1.055.03-2.115-.043-3.167.023-.821.051-1.092-.177-1.084-1.049.044-4.919.037-9.838.006-14.757a8.309,8.309,0,0,0-.35-2.457c-1.016-3.162-4.784-4.543-8.074-2.943-2.711,1.319-3.7,3.723-3.75,6.566-.059,3.362-.02,6.725-.012,10.088a4.214,4.214,0,0,1-2.024,3.943,2.78,2.78,0,0,1-1.227.478c-1.628.055-3.26.022-5,.022v-.895q0-11.8,0-23.594c0-2.754,1.472-4.355,4.229-4.539,1.107-.074,2.223,0,3.333-.039.575-.019.7.239.693.749C525.165,385.122,525.181,386.417,525.181,387.934Z" transform="translate(-420.658 -372.337)"/><path class="a" d="M145.505,398.205a7,7,0,0,0,5.31,5.6,9.547,9.547,0,0,0,6.322-.768,4.725,4.725,0,0,1,6.039,1.073c.412.407.88.758,1.345,1.154a14.125,14.125,0,0,1-5.837,4.1,18.023,18.023,0,0,1-13.1-.008,12.527,12.527,0,0,1-7.667-8.142,16.958,16.958,0,0,1,.273-11.664,12.9,12.9,0,0,1,8.275-7.878,17.073,17.073,0,0,1,10.652-.12c5.019,1.543,7.585,5.236,8.549,10.206a10.264,10.264,0,0,1,.278,2.884,4.045,4.045,0,0,1-4.307,3.564c-5,.012-10,0-15,0Zm12.706-4.951a5.974,5.974,0,0,0-6.129-6.32,6.617,6.617,0,0,0-6.73,6.32Z" transform="translate(-104.096 -370.646)"/></svg>