<svg xmlns="http://www.w3.org/2000/svg" width="80.926" height="74.327" viewBox="0 0 80.926 74.327"><defs><style>.a{fill:#4b4b4b;}</style></defs><g transform="translate(306.765 -228.157)"><path class="a" d="M-274.7,368.974q-13.132,0-26.264,0c-3.888,0-5.794-1.9-5.795-5.756q-.006-15.032,0-30.064c0-3.693,1.886-5.653,5.552-5.657q26.677-.028,53.354,0c3.653,0,5.55,1.992,5.551,5.668q0,15.032,0,30.064c0,3.856-1.914,5.745-5.8,5.746Q-261.405,368.978-274.7,368.974Zm7.529-13.11H-300.02v4.764h32.846Zm10.838-21.6c-1.267,0-2.534,0-3.8,0s-1.984.581-1.991,1.879q-.023,3.884,0,7.768a1.73,1.73,0,0,0,1.959,1.92c2.534,0,5.068,0,7.6,0a1.779,1.779,0,0,0,2-2.047c-.009-2.479-.014-4.959,0-7.437.009-1.456-.708-2.111-2.137-2.088C-253.911,334.28-255.123,334.264-256.336,334.265Z" transform="translate(0 -66.491)"/><path class="a" d="M-273.517,283.872l5.363-16.859,61.372,19.737c-2.222,6.889-4.393,13.628-6.576,20.363a3.635,3.635,0,0,1-.613,1.336c-.712.778-1.529,1.46-2.659,2.513-.057-1.122-.111-1.694-.111-2.267,0-5.342.009-10.685,0-16.027-.01-5.4-3.376-8.788-8.745-8.791q-22.885-.014-45.769,0Z" transform="translate(-22.257 -26.011)"/><path class="a" d="M-249.111,233.192c.686-4.119,3.4-5.863,7.132-4.663q25.287,8.122,50.561,16.279c3.965,1.279,5.13,3.945,3.389,8.027Z" transform="translate(-38.595 0)"/></g></svg>