<svg xmlns="http://www.w3.org/2000/svg" width="99.291" height="75.632" viewBox="0 0 99.291 75.632"><defs><style>.a{fill:#4d4d4d;}.b{fill:#383838;}.c{fill:#fab628;}.d{fill:#ed9900;}</style></defs><g transform="translate(0 -61)"><path class="a" d="M2.909,84.271A2.908,2.908,0,0,1,0,81.362V63.909A2.908,2.908,0,0,1,2.909,61H20.556a2.909,2.909,0,1,1,0,5.818H5.818V81.362A2.908,2.908,0,0,1,2.909,84.271Z"/><path class="a" d="M20.556,354.271H2.909A2.908,2.908,0,0,1,0,351.362V333.909a2.909,2.909,0,1,1,5.818,0v14.545H20.556a2.909,2.909,0,0,1,0,5.818Z" transform="translate(0 -217.64)"/><path class="b" d="M411.556,84.271a2.908,2.908,0,0,1-2.909-2.909V66.818H393.909a2.909,2.909,0,0,1,0-5.818h17.647a2.908,2.908,0,0,1,2.909,2.909V81.362A2.908,2.908,0,0,1,411.556,84.271Z" transform="translate(-315.174)"/><path class="b" d="M411.556,354.271H393.909a2.909,2.909,0,0,1,0-5.818h14.738V333.909a2.909,2.909,0,1,1,5.818,0v17.453A2.908,2.908,0,0,1,411.556,354.271Z" transform="translate(-315.174 -217.64)"/><path class="a" d="M93.909,192.636A2.908,2.908,0,0,1,91,189.727v-5.818a2.909,2.909,0,1,1,5.818,0v5.818A2.908,2.908,0,0,1,93.909,192.636Z" transform="translate(-73.353 -96.729)"/><path class="a" d="M93.909,294.271A2.908,2.908,0,0,1,91,291.362V273.909a2.909,2.909,0,0,1,5.818,0v17.453A2.908,2.908,0,0,1,93.909,294.271Z" transform="translate(-73.353 -169.275)"/><path class="a" d="M153.909,144.271A2.908,2.908,0,0,1,151,141.362V123.909a2.909,2.909,0,0,1,5.818,0v17.453A2.908,2.908,0,0,1,153.909,144.271Z" transform="translate(-121.717 -48.364)"/><path class="a" d="M153.909,282.636A2.908,2.908,0,0,1,151,279.727v-5.818a2.909,2.909,0,0,1,5.818,0v5.818A2.908,2.908,0,0,1,153.909,282.636Z" transform="translate(-121.717 -169.275)"/><path class="a" d="M213.909,192.636A2.908,2.908,0,0,1,211,189.727v-5.818a2.909,2.909,0,1,1,5.818,0v5.818A2.908,2.908,0,0,1,213.909,192.636Z" transform="translate(-170.081 -96.729)"/><path class="a" d="M213.909,294.271A2.908,2.908,0,0,1,211,291.362V273.909a2.909,2.909,0,0,1,5.818,0v17.453A2.908,2.908,0,0,1,213.909,294.271Z" transform="translate(-170.081 -169.275)"/><path class="a" d="M276.818,123.909v17.453a2.909,2.909,0,0,1-5.818,0V123.909a2.909,2.909,0,0,1,5.818,0Z" transform="translate(-218.446 -48.364)"/><path class="a" d="M276.818,273.909v5.818a2.909,2.909,0,0,1-5.818,0v-5.818a2.909,2.909,0,0,1,5.818,0Z" transform="translate(-218.446 -169.275)"/><path class="b" d="M333.909,192.636A2.908,2.908,0,0,1,331,189.727v-5.818a2.909,2.909,0,1,1,5.818,0v5.818A2.908,2.908,0,0,1,333.909,192.636Z" transform="translate(-266.81 -96.729)"/><path class="b" d="M333.909,294.271A2.908,2.908,0,0,1,331,291.362V273.909a2.909,2.909,0,0,1,5.818,0v17.453A2.908,2.908,0,0,1,333.909,294.271Z" transform="translate(-266.81 -169.275)"/><path class="b" d="M393.909,144.271A2.908,2.908,0,0,1,391,141.362V123.909a2.909,2.909,0,0,1,5.818,0v17.453A2.908,2.908,0,0,1,393.909,144.271Z" transform="translate(-315.174 -48.364)"/><path class="b" d="M393.909,282.636A2.908,2.908,0,0,1,391,279.727v-5.818a2.909,2.909,0,0,1,5.818,0v5.818A2.908,2.908,0,0,1,393.909,282.636Z" transform="translate(-315.174 -169.275)"/><path class="a" d="M96.791,123.909A2.909,2.909,0,1,1,93.882,121,2.909,2.909,0,0,1,96.791,123.909Z" transform="translate(-73.331 -48.364)"/><path class="a" d="M216.791,123.909A2.909,2.909,0,1,1,213.882,121,2.909,2.909,0,0,1,216.791,123.909Z" transform="translate(-170.06 -48.364)"/><path class="b" d="M336.791,123.909A2.909,2.909,0,1,1,333.882,121,2.909,2.909,0,0,1,336.791,123.909Z" transform="translate(-266.788 -48.364)"/><path class="a" d="M156.791,363.909A2.909,2.909,0,1,1,153.882,361,2.909,2.909,0,0,1,156.791,363.909Z" transform="translate(-121.695 -241.822)"/><path class="a" d="M276.818,363.909A2.909,2.909,0,1,1,273.909,361,2.881,2.881,0,0,1,276.818,363.909Z" transform="translate(-218.446 -241.822)"/><path class="b" d="M396.791,363.909A2.909,2.909,0,1,1,393.882,361,2.909,2.909,0,0,1,396.791,363.909Z" transform="translate(-315.153 -241.822)"/><path class="b" d="M288.909,363.909A2.881,2.881,0,0,1,286,366.818V361A2.88,2.88,0,0,1,288.909,363.909Z" transform="translate(-230.537 -241.822)"/><path class="b" d="M288.909,123.909v17.453A2.881,2.881,0,0,1,286,144.271V121A2.88,2.88,0,0,1,288.909,123.909Z" transform="translate(-230.537 -48.364)"/><path class="b" d="M288.909,273.909v5.818A2.881,2.881,0,0,1,286,282.636V271A2.88,2.88,0,0,1,288.909,273.909Z" transform="translate(-230.537 -169.275)"/><path class="c" d="M96.382,226H2.909A2.88,2.88,0,0,0,0,228.909v5.818a2.881,2.881,0,0,0,2.909,2.909H96.382a2.881,2.881,0,0,0,2.909-2.909v-5.818A2.88,2.88,0,0,0,96.382,226Z" transform="translate(0 -133.002)"/><path class="d" d="M329.828,228.909v5.818a2.881,2.881,0,0,1-2.909,2.909H286V226h40.919A2.88,2.88,0,0,1,329.828,228.909Z" transform="translate(-230.537 -133.002)"/></g></svg>