<svg xmlns="http://www.w3.org/2000/svg" width="250" height="158.164" viewBox="0 0 250 158.164"><defs><style>.a{fill:#fff;}</style></defs><g transform="translate(-367 -225)"><path class="a" d="M539.193,275.293H511.915c-4.027,0-7.106-1.848-8.9-6.167-.792-1.906.782-2.421.782-2.421h26.469c3.085,0,7.325-.938,9.611-3.233,2-2,3.029-4.079,3.041-8.8,0-3.929-.485-5.744-3.6-8.873a12.686,12.686,0,0,0-8.954-3.416h-20.7c-10.836,0-18.983,9.228-18.983,20.6s8.146,20.6,18.983,20.6h22.174c6.007,0,7.492-1.33,9.049-2.98,1.67-1.767,1.9-2.74,1.9-3.766,0-1.791-3.6-1.541-3.6-1.541M503.53,255.85c1.794-3.072,3.965-5.447,9.924-5.447h11.964s5.563.449,5.563,4.3-3.01,4.556-6.908,4.556S505,259.2,505,259.2s-3.257-.258-1.472-3.349" transform="translate(-20.957 -2.946)"/><path class="a" d="M448.184,264.993c0,11.684,9.752,15.677,17.313,15.677h5.274a8.932,8.932,0,0,0,8.061-5.389c1.193-2.794-2.383-2.794-2.383-2.794h-9.657s-3.181.224-4.8-2.188c-1.788-2.672-1.463-3.611-1.463-6.891v-28.75c0-1.689-.2-4.4-1.5-5.583-1.294-1.205-4.876-3.6-7.965-3.8s-2.983,3.5-2.983,3.5.1,23.957.1,36.225" transform="translate(-13.739 -0.044)"/><path class="a" d="M424.918,225.048,387.206,225c-4.887,0-10.209.417-13.312,2.179s-6.887,5.194-6.887,10.329v5.234c-.017,6.812.066,14.65.04,20.516-.043.486-.047.788-.047.788v14.6c0,2.758,1.165,4.224,6.99.6,5.271-3.291,4.839-6.883,4.839-6.883v-8.208c0-2.277.135-3.69,1.554-5.355s4.4-1.65,4.4-1.65h26.727c3.366,0,6.213.087,9.227-1.127s4.738-4.844,5.081-6.061-1.982-1.295-1.982-1.295H386.624c-3.345,0-7.24-1.655-8-6v-3.182c.733-4.147,4.437-5.181,8.916-5.181H419.19a10.063,10.063,0,0,0,6.717-3.875c1.679-2.3,1.551-3.116,1.551-3.116s.708-2.263-2.54-2.263" transform="translate(0 0)"/><path class="a" d="M638.46,275.3H628.4c-4.551,0-13.915-.7-13.915-11.239,0-.243.007-.474.016-.711-.009-.239-.016-.471-.016-.714,0-10.539,9.365-11.241,13.915-11.241H638.46c6.825,0,8.234-1.227,9.809-3.16A6.618,6.618,0,0,0,650,244.815c0-2.114-2.625-1.992-2.625-1.992l-23.526,0c-5.208,0-13.55,2.2-17.956,8.389-4.416-6.191-12.746-8.389-17.958-8.389H564.413s-2.624-.124-2.624,1.99a6.631,6.631,0,0,0,1.735,3.417c1.578,1.934,2.991,3.16,9.809,3.16h10.056c4.551,0,13.919.7,13.919,11.241,0,.243-.007.475-.016.714.009.237.016.468.016.711,0,10.536-9.368,11.239-13.919,11.239H573.333c-6.818,0-8.231,1.229-9.809,3.159a6.639,6.639,0,0,0-1.735,3.419c0,2.109,2.624,1.992,2.624,1.992h23.527c5.212,0,13.542-2.2,17.958-8.394,4.406,6.192,12.748,8.394,17.956,8.394H647.38s2.625.117,2.625-1.992a6.638,6.638,0,0,0-1.735-3.419c-1.575-1.93-2.984-3.159-9.809-3.159" transform="translate(-33.004 -3.02)"/><g transform="translate(367 330.634)"><path class="a" d="M460.357,404.713H376.633A9.644,9.644,0,0,1,367,395.08V361.816a9.644,9.644,0,0,1,9.633-9.632h83.724a9.644,9.644,0,0,1,9.633,9.632V395.08A9.644,9.644,0,0,1,460.357,404.713Zm-83.724-50.686a7.8,7.8,0,0,0-7.79,7.789V395.08a7.8,7.8,0,0,0,7.79,7.79h83.724a7.8,7.8,0,0,0,7.79-7.79V361.816a7.8,7.8,0,0,0-7.79-7.789Z" transform="translate(-367 -352.184)"/><g transform="translate(10.828 10.599)"><path class="a" d="M401.526,366.223a9.548,9.548,0,0,1,4.772,8.313v1a9.544,9.544,0,0,1-9.591,9.591h-7.079v11.144h-9.591V364.945h16.67A9.477,9.477,0,0,1,401.526,366.223Zm-11.9,11.921h4.2a2.518,2.518,0,0,0,2.009-.845,2.828,2.828,0,0,0,.731-1.9v-.548a2.88,2.88,0,0,0-.708-1.9,2.5,2.5,0,0,0-2.032-.845h-4.2Z" transform="translate(-380.037 -364.945)"/><path class="a" d="M439.314,396.276h-9.957l-1.872-5.572h-9.957l-1.827,5.572h-9.225l10.458-31.331h11.92Zm-16.9-21.694-2.7,9.5h5.572l-2.649-9.5Z" transform="translate(-384.517 -364.945)"/><path class="a" d="M466.841,366.795a13.93,13.93,0,0,1,4.977,4.978,13.258,13.258,0,0,1,1.85,6.874v3.928a13.257,13.257,0,0,1-1.85,6.874,13.937,13.937,0,0,1-4.977,4.978,13.261,13.261,0,0,1-6.874,1.85H445.853V364.945h14.114A13.26,13.26,0,0,1,466.841,366.795Zm-11.3,22.22h3.517a4.524,4.524,0,0,0,4.567-4.567v-7.811a4.524,4.524,0,0,0-4.567-4.567h-3.517Z" transform="translate(-391.189 -364.945)"/></g></g><g transform="translate(367 290.659)"><path class="a" d="M384.673,311.232a4.277,4.277,0,0,0-2.078-3.841,9.725,9.725,0,0,0-5.31-1.323,10.089,10.089,0,0,0-5.331,1.239,4.267,4.267,0,0,0-2.015,3.924,3.873,3.873,0,0,0,1.05,2.834,7.312,7.312,0,0,0,2.6,1.679,36.5,36.5,0,0,0,4.2,1.281,46.448,46.448,0,0,1,5.143,1.616,8.288,8.288,0,0,1,3.316,2.393,6.517,6.517,0,0,1,1.365,4.345q0,4.323-2.834,6.317a12.521,12.521,0,0,1-7.367,1.994,13.162,13.162,0,0,1-7.556-1.952Q367,329.786,367,325.42l.042-.755h2.14l-.042,1.133a4.9,4.9,0,0,0,2.224,4.471,10.873,10.873,0,0,0,5.877,1.406q8.143,0,8.144-6.171a4.55,4.55,0,0,0-1.112-3.19,7.164,7.164,0,0,0-2.729-1.847,44.677,44.677,0,0,0-4.429-1.385,43.768,43.768,0,0,1-4.953-1.6,8.1,8.1,0,0,1-3.149-2.287,6.111,6.111,0,0,1-1.3-4.093,5.893,5.893,0,0,1,2.708-5.29,12.263,12.263,0,0,1,6.821-1.763,11.774,11.774,0,0,1,6.885,1.848,6.484,6.484,0,0,1,2.645,5.708v.546h-2.1Z" transform="translate(-367 -304.053)"/><path class="a" d="M403.974,330.563q-2.96-3.127-2.959-11.145v-1.091q0-8.018,2.959-11.145t8.206-3.128q5.248,0,8.207,3.128t2.959,11.145v1.091q0,8.018-2.959,11.145t-8.207,3.127Q406.933,333.69,403.974,330.563Zm14.734-1.448q2.371-2.56,2.372-9.194v-2.1q0-6.632-2.372-9.193a9.6,9.6,0,0,0-13.056,0q-2.372,2.56-2.371,9.193v2.1q0,6.634,2.371,9.194a9.6,9.6,0,0,0,13.056,0Z" transform="translate(-372.763 -304.053)"/><path class="a" d="M438.88,333.355v-28.8h2.267v26.782h14.272l.5,2.014Z" transform="translate(-379.179 -304.139)"/><path class="a" d="M486.463,324.121a10.127,10.127,0,0,1-1.238,5.08,8.474,8.474,0,0,1-3.527,3.379,11.206,11.206,0,0,1-5.268,1.2,11.074,11.074,0,0,1-5.247-1.2,8.506,8.506,0,0,1-3.506-3.379,10.119,10.119,0,0,1-1.238-5.08V304.559h2.267v19.478a7.716,7.716,0,0,0,2.036,5.645,8.786,8.786,0,0,0,11.4-.041,7.709,7.709,0,0,0,2.057-5.6V304.559h2.267Z" transform="translate(-383.849 -304.139)"/><path class="a" d="M511.759,306.574v26.782h-2.183V306.574h-9.739v-2.015H521.5v2.015Z" transform="translate(-389.507 -304.139)"/><path class="a" d="M533.972,304.559h8.9v2.057h-3.315V331.3h3.315v2.056h-8.9V331.3h3.317V306.615h-3.317Z" transform="translate(-395.291 -304.139)"/><path class="a" d="M555.884,330.563q-2.959-3.127-2.959-11.145v-1.091q0-8.018,2.959-11.145t8.207-3.128q5.247,0,8.207,3.128t2.959,11.145v1.091q0,8.018-2.959,11.145t-8.207,3.127Q558.844,333.69,555.884,330.563Zm14.734-1.448q2.372-2.56,2.372-9.194v-2.1q0-6.632-2.372-9.193a9.6,9.6,0,0,0-13.055,0q-2.372,2.56-2.372,9.193v2.1q0,6.634,2.372,9.194a9.6,9.6,0,0,0,13.055,0Z" transform="translate(-398.502 -304.053)"/><path class="a" d="M608.883,333.355l-15.952-24.473h-.126v24.473h-2.014v-28.8h1.931l16.035,24.473h.126V304.559H610.9v28.8Z" transform="translate(-404.918 -304.139)"/></g></g></svg>