<svg xmlns="http://www.w3.org/2000/svg" width="87.036" height="73.481" viewBox="0 0 87.036 73.481"><defs><style>.a{fill:#4b4b4b;}</style></defs><path class="a" d="M-97.943,117.492H-110.5c-11.571,0-23.141-.048-34.711.043-2.134.017-3.467-.319-3.629-2.769a27.028,27.028,0,0,0-.979-4.223h61.155c-2.142,7.92-4.255,15.741-6.374,23.559-.792,2.924-1.617,5.839-2.4,8.765-1.669,6.244-3.2,7.508-8.825,7.763,1.851,1.724,4.363,3.5,6.108,5.839,1.949,2.615,1.941,5.849.781,8.962-1.66,4.452-6.276,7.569-10.706,7.245-5.055-.371-9.483-4.168-10.306-8.839-1.006-5.707,1.688-10.071,8.363-13.1h-28.082c6.9,3.491,9.567,8.135,8.051,13.787a11.357,11.357,0,0,1-10.868,8.167,11.176,11.176,0,0,1-10.4-8.7c-1.12-5.915,1.49-10.213,8.406-13.3-1.04-.055-1.657-.078-2.273-.121-3.919-.275-6.188-2.146-7.157-6q-4.462-17.75-8.888-35.508c-.206-.822-.479-1.628-.755-2.557-2.614,0-5.129.029-7.644-.008-2.332-.034-4.031-1.531-4.063-3.5-.034-2.024,1.521-3.584,3.939-3.679a77.522,77.522,0,0,1,8.087.016c4.011.262,6.114,2.344,7.2,6.68,2.934,11.758,5.932,23.5,8.768,35.282.414,1.721,1.053,2.219,2.751,2.21,12.614-.062,25.228-.011,37.843-.088.8,0,2.134-.627,2.308-1.228C-102.45,134.067-100.251,125.9-97.943,117.492Zm-40.993,44.3a3.7,3.7,0,0,0-3.518-3.739,3.765,3.765,0,0,0-3.993,3.561,3.948,3.948,0,0,0,3.558,3.807A3.825,3.825,0,0,0-138.936,161.791Zm29.361-3.752a3.581,3.581,0,0,0-3.735,3.482,3.757,3.757,0,0,0,3.645,3.907,3.938,3.938,0,0,0,3.8-3.556A3.749,3.749,0,0,0-109.575,158.039Z" transform="translate(175.703 -99.22)"/></svg>