<svg xmlns="http://www.w3.org/2000/svg" width="52.339" height="58.662" viewBox="0 0 52.339 58.662"><defs><style>.a{fill:#4b4b4b;}</style></defs><g transform="translate(-13.235 -11.935)"><g transform="translate(13.235 11.935)"><path class="a" d="M65.339,47.283a5.663,5.663,0,0,0-1.118-1.753,5.468,5.468,0,0,0-2-1.276,15.085,15.085,0,0,1-5.854-7.106.583.583,0,0,0-.032-.051l-3.2-8.312A20.449,20.449,0,0,0,42.222,17.362a19.9,19.9,0,0,0-10.23-1.653l-.056-.146A5.654,5.654,0,0,0,21.381,19.62l.046.122A20.6,20.6,0,0,0,14.61,43.564l3.216,8.4,0,.01a15.41,15.41,0,0,1,.428,9.075,5.147,5.147,0,0,0-.416,4.5l.015.039a3.613,3.613,0,0,0,4.67,1.857L63.27,51.895a3.573,3.573,0,0,0,2.069-4.612ZM20.2,41.108a1.224,1.224,0,0,1-.163.012.852.852,0,0,1-.834-.688,17.256,17.256,0,0,1-.309-2.961.85.85,0,0,1,.836-.863h.015a.849.849,0,0,1,.851.836,15.552,15.552,0,0,0,.277,2.664A.853.853,0,0,1,20.2,41.108Zm7-16.67a15.685,15.685,0,0,0-6.1,8.817.853.853,0,0,1-.824.635.837.837,0,0,1-.216-.027.851.851,0,0,1-.605-1.04,17.485,17.485,0,0,1,3.4-6.644,17.254,17.254,0,0,1,3.365-3.126.849.849,0,0,1,.982,1.386Z" transform="translate(-13.235 -11.935)"/><path class="a" d="M32.943,32.465l-1.59.61L21.174,36.989l-1.59.613a6.756,6.756,0,0,0,3.26,3.029,6.9,6.9,0,0,0,5.263.124l.627-.241A6.879,6.879,0,0,0,32.556,36.9,6.768,6.768,0,0,0,32.943,32.465Z" transform="translate(-4.15 17.445)"/></g></g></svg>