<svg xmlns="http://www.w3.org/2000/svg" width="35" height="34.653" viewBox="0 0 35 34.653"><defs><style>.a{opacity:0.65;}.b{fill:#fff;}</style></defs><g class="a" transform="translate(-0.2 -0.3)"><rect class="b" width="20.134" height="1.144" transform="translate(7.616 3.765)"/><rect class="b" width="1.144" height="19.787" transform="translate(3.596 7.716)"/><g transform="translate(7.962 7.716)"><rect class="b" width="1.144" height="19.787" transform="translate(22.629)"/><rect class="b" width="19.787" height="1.144" transform="translate(0 22.698)"/></g><g transform="translate(0.2 0.3)"><path class="b" d="M8.2,8.3H.2V.3h8ZM1.344,7.161H7.061V1.444H1.344Z" transform="translate(-0.2 -0.3)"/></g><g transform="translate(27.195 0.3)"><path class="b" d="M85.1,8.3h-8V.3h8ZM78.244,7.161h5.683V1.444H78.244Z" transform="translate(-77.1 -0.3)"/></g><g transform="translate(0.2 26.949)"><path class="b" d="M8.2,85.2H.2v-8h8ZM1.344,84.061H7.061V78.344H1.344Z" transform="translate(-0.2 -77.2)"/></g><g transform="translate(27.195 26.949)"><path class="b" d="M85.1,85.2h-8v-8h8Zm-6.861-1.144h5.683V78.344H78.244Z" transform="translate(-77.1 -77.2)"/></g><g transform="translate(10.314 12.881)"><rect class="b" width="9.668" height="1.144" transform="translate(4.616 11.442) rotate(-45)"/><rect class="b" width="9.668" height="1.144" transform="translate(0 6.836) rotate(-45)"/></g><path class="b" d="M54.232,26.826,56,25.059a2.7,2.7,0,1,1,3.812,3.812l-1.767,1.767.8.8,1.767-1.767a3.872,3.872,0,0,0-5.475-5.475L53.4,26.029Z" transform="translate(-34.522 -14.883)"/><g transform="translate(16.112 10.081)"><path class="b" d="M52.708,37.8a1.053,1.053,0,0,1-.8-.347l-6.064-6.064a1.107,1.107,0,0,1-.347-.8,1.053,1.053,0,0,1,.347-.8l.936-.936a1.15,1.15,0,0,1,1.629,0l6.03,6.064a1.107,1.107,0,0,1,.347.8,1.053,1.053,0,0,1-.347.8l-.936.936A1.053,1.053,0,0,1,52.708,37.8Zm0-1.144-.416.416.416-.416Zm-5.129-6.965-.936.936,6.064,6.03.936-.936Z" transform="translate(-45.5 -28.525)"/></g><path class="b" d="M29.778,61.075,24.3,55.6l-1.04,1.04L21.6,63.778l7.139-1.663ZM24.3,57.263l3.812,3.812L23.09,62.219Z" transform="translate(-13.887 -36.137)"/></g></svg>