<svg xmlns="http://www.w3.org/2000/svg" width="141.435" height="44.002" viewBox="0 0 141.435 44.002"><defs><style>.a{fill:#555859;}.b{fill:#fdb913;}</style></defs><g transform="translate(-554.214 -186.971)"><path class="a" d="M878.537,186.975H852.694v6.146h6.146V224.83h-6.146v6.146h25.843a6.146,6.146,0,0,0,6.146-6.146V193.121A6.146,6.146,0,0,0,878.537,186.975ZM864.986,224.83V193.121h13.552V224.83Z" transform="translate(-189.034 -0.003)"/><path class="a" d="M787.547,224.826H760.827v-6.61a6.2,6.2,0,0,1,6.2-6.2h7.706a12.359,12.359,0,0,0,12.346-12.343v-.358a12.357,12.357,0,0,0-12.346-12.343h-13.9v6.146h13.9a6.2,6.2,0,0,1,6.2,6.2v.358a6.2,6.2,0,0,1-6.2,6.2h-7.706a12.357,12.357,0,0,0-12.343,12.346v6.61h0a6.146,6.146,0,0,0,6.146,6.146h26.721Z" transform="translate(-126.961)"/><path class="b" d="M630.765,193.132h-.084c-.037,0-.075,0-.112,0-.074.007-.149.006-.223.016a4.124,4.124,0,0,0-.44.064,4.393,4.393,0,0,0-.851.255,4.543,4.543,0,0,0-2.462,2.463c-.055.138-.106.278-.149.422-.018.073-.044.143-.059.217l-.063.276-.313,1.462-2.508,11.7L620.98,221.7l-.158.731c-.074.334-.161.671-.267,1a10.64,10.64,0,0,1-.822,1.9,10.507,10.507,0,0,1-6.335,5.009,10.277,10.277,0,0,1-2.035.361c-.172.01-.344.025-.516.026l-.258,0h-.218c-.344-.005-.688-.021-1.03-.06a10.449,10.449,0,0,1-8.94-7.506c-.051-.164-.088-.331-.13-.5l-.088-.387-.164-.73-.328-1.459-2.623-11.672-1.311-5.836-1.341-5.829-.071-.315-.062-.26c-.042-.173-.095-.339-.148-.5a6.5,6.5,0,0,0-.386-.923,5.721,5.721,0,0,0-1.108-1.493,5.021,5.021,0,0,0-1.687-1.125,4.1,4.1,0,0,0-.548-.18c-.094-.027-.193-.043-.29-.065l-.107-.025-.088-.026a.888.888,0,0,0-.6.061,3.182,3.182,0,0,0-1.155,1.646,13.956,13.956,0,0,0-.708,2.635c-.345,1.874-.495,3.847-.673,5.845-.093,1-.175,2.013-.323,3.045a11.555,11.555,0,0,1-.842,3.234,4,4,0,0,1-.563.883,2.729,2.729,0,0,1-1.029.766,2.6,2.6,0,0,1-.669.173c-.107.009-.227.017-.325.019l-.187,0-.374-.008-.2,0-.274-.016a3.22,3.22,0,0,1-1.1-.3,3.544,3.544,0,0,1-.91-.635,6.033,6.033,0,0,1-1.067-1.5c-.256-.482-.465-.942-.676-1.35a4.475,4.475,0,0,0-.642-1,.978.978,0,0,0-.624-.351c-.241,0,.034-.027-.009-.036a.821.821,0,0,0-.2.231,5.414,5.414,0,0,0-.522,1.118c-.155.427-.289.882-.414,1.344-.249.926-.458,1.887-.659,2.855-.4,1.939-.757,3.907-1.273,5.9-.134.5-.28,1-.464,1.513a6.409,6.409,0,0,1-.791,1.586,2.3,2.3,0,0,1-1,.809,1.717,1.717,0,0,1-.415.1,2.157,2.157,0,0,1-.226.014,1.4,1.4,0,0,1-.3-.038,1.6,1.6,0,0,1-.788-.471,3.191,3.191,0,0,1-.572-.909,7.687,7.687,0,0,1-.3-.8,24.237,24.237,0,0,1-.678-3.045c-.169-1-.308-2-.437-3-.255-1.992-.468-3.978-.686-5.96s-.435-3.958-.7-5.917c-.134-.979-.28-1.954-.457-2.912a17.573,17.573,0,0,0-.688-2.744,3.362,3.362,0,0,0-.249-.534.915.915,0,0,0-.107-.148c-.023-.026-.017,0,.065.019.124.026.1.008.113.009a.12.12,0,0,0-.048.03,1.324,1.324,0,0,0-.275.351,6.285,6.285,0,0,0-.509,1.206c-.143.445-.267.909-.381,1.38-.45,1.892-.762,3.863-1.143,5.832-.191.987-.393,1.977-.653,2.971a15.369,15.369,0,0,1-.466,1.494,6.241,6.241,0,0,1-.765,1.5,2.482,2.482,0,0,1-.762.705,1.705,1.705,0,0,1-.594.206l-.162.012-.081,0h-.047l-.187-.006-1.5-.051c-1-.03-1.994-.082-2.991-.143a.483.483,0,0,1,0-.964c1-.061,1.994-.113,2.991-.143l1.5-.051c.339-.009.263-.009.374-.065a1.176,1.176,0,0,0,.3-.329,5.47,5.47,0,0,0,.541-1.177c.15-.44.277-.9.395-1.369.232-.938.416-1.905.59-2.879.35-1.95.633-3.926,1.076-5.921.114-.5.239-1,.395-1.507a7.809,7.809,0,0,1,.638-1.55,2.927,2.927,0,0,1,.653-.81,1.808,1.808,0,0,1,.6-.335,1.552,1.552,0,0,1,.378-.074,1.337,1.337,0,0,1,.47.04,1.576,1.576,0,0,1,.689.416,2.5,2.5,0,0,1,.347.443,4.952,4.952,0,0,1,.4.811,18.108,18.108,0,0,1,.81,3.039c.194,1,.351,2,.5,2.992.287,1.99.522,3.976.756,5.957s.463,3.958.732,5.919c.135.98.281,1.956.451,2.918a22.571,22.571,0,0,0,.641,2.785,5.8,5.8,0,0,0,.225.6,1.481,1.481,0,0,0,.209.358.356.356,0,0,0-.165-.078.556.556,0,0,0-.114-.014.143.143,0,0,0-.039,0,.252.252,0,0,0-.054.013c-.049.021.039-.018.125-.15a4.715,4.715,0,0,0,.514-1.095c.151-.429.28-.886.4-1.349.473-1.869.789-3.837,1.171-5.806.19-.987.389-1.979.643-2.983.128-.5.267-1.006.445-1.52a7.369,7.369,0,0,1,.732-1.59,2.859,2.859,0,0,1,.81-.855,2.018,2.018,0,0,1,.754-.306,2.822,2.822,0,0,1,.668-.009,3.178,3.178,0,0,1,1.1.329,3.432,3.432,0,0,1,.87.662,6.5,6.5,0,0,1,1.018,1.48c.253.475.463.919.682,1.315a3.933,3.933,0,0,0,.662.931,1.006,1.006,0,0,0,.649.294l.1,0,.176,0,.374-.008.187,0a.209.209,0,0,1,.049-.005.26.26,0,0,0,.051-.016,1.084,1.084,0,0,0,.373-.513,9.6,9.6,0,0,0,.59-2.551c.117-.944.194-1.921.251-2.908.12-1.977.185-3.991.421-6.065a18.949,18.949,0,0,1,.619-3.189,8.328,8.328,0,0,1,.693-1.673,5.46,5.46,0,0,1,1.351-1.625,4.819,4.819,0,0,1,2.162-.975c.18-.03.4-.062.552-.078s.3-.035.457-.043c.308-.019.621-.04.939-.033a8.06,8.06,0,0,1,3.861.974,8.553,8.553,0,0,1,2.962,2.825,10.743,10.743,0,0,1,.918,1.764c.118.3.228.609.322.916.046.154.094.307.132.462l.1.412,1.33,5.832,1.36,5.825,2.72,11.65.34,1.456.17.728.081.341c.021.075.036.152.062.225a4.694,4.694,0,0,0,4.04,3.334c.153.016.308.021.462.023h.156l.116,0c.078,0,.154-.01.231-.014a4.494,4.494,0,0,0,.9-.169,4.66,4.66,0,0,0,2.786-2.245,4.733,4.733,0,0,0,.353-.841c.046-.146.081-.293.115-.445l.151-.732,2.424-11.715,2.439-11.712.306-1.464.1-.453c.037-.17.088-.337.135-.505.1-.335.214-.665.344-.989a10.641,10.641,0,0,1,5.745-5.813,10.488,10.488,0,0,1,2.006-.615,10.213,10.213,0,0,1,1.038-.156c.174-.021.348-.028.523-.04.087-.006.174-.006.261-.009l.234,0Z" transform="translate(0 -0.025)"/></g></svg>