<svg xmlns="http://www.w3.org/2000/svg" width="95.25" height="78.196" viewBox="0 0 95.25 78.196"><defs><style>.a{fill:#4b4b4b;}</style></defs><g transform="translate(-161.75 -228)"><path class="a" d="M233.611,263.75H197.687a13.077,13.077,0,0,0-13.063,13.063v14.7a13.077,13.077,0,0,0,13.063,13.063h35.924a13.077,13.077,0,0,0,13.063-13.063v-14.7A13.077,13.077,0,0,0,233.611,263.75ZM244.5,291.509a10.9,10.9,0,0,1-10.886,10.886H197.687A10.9,10.9,0,0,1,186.8,291.509v-14.7a10.9,10.9,0,0,1,10.886-10.886h35.924A10.9,10.9,0,0,1,244.5,276.813Z" transform="translate(-6.274 -9.806)"/><path class="a" d="M213.64,285.921a5.171,5.171,0,1,0-5.171,5.171A5.176,5.176,0,0,0,213.64,285.921Zm-5.171,2.994a2.994,2.994,0,1,1,2.994-2.994A3,3,0,0,1,208.47,288.914Z" transform="translate(-11.396 -14.469)"/><path class="a" d="M242.372,280.75a5.171,5.171,0,1,0,5.171,5.171A5.176,5.176,0,0,0,242.372,280.75Zm0,8.164a2.994,2.994,0,1,1,2.994-2.994A3,3,0,0,1,242.372,288.914Z" transform="translate(-20.695 -14.469)"/><path class="a" d="M252.283,265.556h-.363V262.29a19.8,19.8,0,0,0-19.776-19.776H210.464v-4.29a5.171,5.171,0,1,0-2.177,0v4.29H186.606A19.8,19.8,0,0,0,166.83,262.29v3.266h-.363a4.723,4.723,0,0,0-4.717,4.717v7.62a4.723,4.723,0,0,0,4.717,4.717h.363v3.81A19.8,19.8,0,0,0,186.606,306.2h45.539A19.8,19.8,0,0,0,251.92,286.42v-3.81h.363A4.723,4.723,0,0,0,257,277.893v-7.62A4.723,4.723,0,0,0,252.283,265.556Zm-45.9-32.385a2.994,2.994,0,1,1,2.994,2.994A3,3,0,0,1,206.381,233.171Zm-39.914,47.262a2.543,2.543,0,0,1-2.54-2.54v-7.62a2.543,2.543,0,0,1,2.54-2.54h.363v12.7Zm82.55,5.987a16.892,16.892,0,0,1-16.873,16.873H186.606a16.892,16.892,0,0,1-16.873-16.873V262.29a16.892,16.892,0,0,1,16.873-16.873h45.539a16.892,16.892,0,0,1,16.873,16.873Zm5.806-8.527a2.543,2.543,0,0,1-2.54,2.54h-.363v-12.7h.363a2.543,2.543,0,0,1,2.54,2.54Z"/><path class="a" d="M228.662,304.3c-4.074,1.952-9.661,1.02-12.2-2.033l-1.673,1.393a11.981,11.981,0,0,0,9.164,3.843,13.137,13.137,0,0,0,5.65-1.239,10.137,10.137,0,0,0,3.459-2.648l-1.684-1.381A7.947,7.947,0,0,1,228.662,304.3Z" transform="translate(-14.548 -20.362)"/></g></svg>