<svg xmlns="http://www.w3.org/2000/svg" width="379.714" height="118.143" viewBox="0 0 379.714 118.143"><defs><style>.a{fill:#fff;}.b{fill:#fdb913;}</style></defs><g transform="translate(-414 -280.309)"><path class="a" d="M777.214,280.314H707.837v16.5h16.5v85.125h-16.5v16.5h69.377a16.5,16.5,0,0,0,16.5-16.5V296.814A16.5,16.5,0,0,0,777.214,280.314ZM740.836,381.939V296.814h36.381v85.125Z"/><path class="a" d="M699.584,381.937H627.852V364.191A16.645,16.645,0,0,1,644.5,347.547h20.687a33.179,33.179,0,0,0,33.144-33.136v-.961a33.174,33.174,0,0,0-33.144-33.136H627.868v16.5h37.316a16.644,16.644,0,0,1,16.644,16.644h0v.961a16.644,16.644,0,0,1-16.644,16.645H644.5a33.173,33.173,0,0,0-33.136,33.144v17.745h0a16.5,16.5,0,0,0,16.5,16.5h71.735Z"/><path class="b" d="M619.527,296.784H619c-.2.019-.4.016-.6.043a10.952,10.952,0,0,0-1.181.172,11.827,11.827,0,0,0-2.285.684,12.2,12.2,0,0,0-6.609,6.613c-.148.37-.285.746-.4,1.132-.048.2-.118.384-.158.583l-.17.741-.84,3.925-6.733,31.41-6.768,31.39-.424,1.963c-.2.9-.432,1.8-.717,2.684a28.519,28.519,0,0,1-2.207,5.1A28.2,28.2,0,0,1,572.9,396.672a27.515,27.515,0,0,1-5.463.969c-.461.027-.923.068-1.385.07h-1.278c-.923-.013-1.847-.056-2.765-.161a28.049,28.049,0,0,1-24-20.15c-.137-.441-.236-.889-.349-1.343l-.236-1.039-.441-1.959-.88-3.917-7.042-31.335-3.519-15.667-3.6-15.648-.191-.846-.166-.7c-.113-.464-.255-.91-.4-1.342a17.449,17.449,0,0,0-1.036-2.478,15.365,15.365,0,0,0-2.974-4.008,13.472,13.472,0,0,0-4.529-3.02,11.052,11.052,0,0,0-1.471-.484c-.253-.072-.519-.115-.779-.174l-.287-.067-.236-.07a2.383,2.383,0,0,0-1.611.164,8.542,8.542,0,0,0-3.1,4.419,37.468,37.468,0,0,0-1.9,7.073c-.926,5.031-1.329,10.328-1.806,15.692-.25,2.684-.47,5.4-.867,8.174a31.027,31.027,0,0,1-2.261,8.682,10.743,10.743,0,0,1-1.511,2.371,7.325,7.325,0,0,1-2.763,2.056,7.008,7.008,0,0,1-1.8.465c-.287.024-.609.045-.872.051h-.5l-1-.022h-.537l-.736-.043a8.633,8.633,0,0,1-2.953-.8,9.53,9.53,0,0,1-2.443-1.7,16.2,16.2,0,0,1-2.864-4.027c-.687-1.294-1.249-2.529-1.815-3.624a12.007,12.007,0,0,0-1.724-2.684,2.622,2.622,0,0,0-1.675-.943c-.647,0,.091-.072-.024-.1a2.2,2.2,0,0,0-.537.62,14.535,14.535,0,0,0-1.4,3c-.416,1.146-.776,2.368-1.112,3.608-.668,2.486-1.229,5.066-1.769,7.665-1.074,5.2-2.032,10.488-3.417,15.839-.36,1.342-.752,2.684-1.246,4.062a17.224,17.224,0,0,1-2.123,4.257,6.179,6.179,0,0,1-2.685,2.172,4.6,4.6,0,0,1-1.114.269,5.844,5.844,0,0,1-.607.037,3.767,3.767,0,0,1-.805-.1,4.3,4.3,0,0,1-2.116-1.264,8.556,8.556,0,0,1-1.535-2.441,20.769,20.769,0,0,1-.806-2.147,65.275,65.275,0,0,1-1.82-8.175c-.453-2.684-.827-5.369-1.173-8.054-.685-5.347-1.256-10.679-1.842-16s-1.167-10.625-1.879-15.884c-.359-2.629-.752-5.246-1.227-7.818a47.031,47.031,0,0,0-1.847-7.366,8.983,8.983,0,0,0-.668-1.434,2.389,2.389,0,0,0-.287-.4c-.062-.07-.046,0,.174.051.333.069.269.021.3.024a.326.326,0,0,0-.129.08,3.543,3.543,0,0,0-.739.943,16.867,16.867,0,0,0-1.366,3.237c-.384,1.195-.717,2.441-1.023,3.7-1.208,5.079-2.045,10.371-3.068,15.657-.513,2.649-1.055,5.307-1.753,7.975a41.557,41.557,0,0,1-1.251,4.011,16.779,16.779,0,0,1-2.054,4.027,6.668,6.668,0,0,1-2.046,1.893,4.592,4.592,0,0,1-1.594.553l-.435.032h-.344l-.5-.016-4.027-.137c-2.684-.081-5.353-.22-8.03-.384a1.3,1.3,0,0,1,0-2.588c2.685-.164,5.354-.3,8.03-.384l4.027-.137c.91-.024.706-.024,1-.174a3.155,3.155,0,0,0,.805-.883,14.658,14.658,0,0,0,1.453-3.16c.4-1.181.743-2.416,1.06-3.675.623-2.519,1.117-5.115,1.584-7.729.94-5.235,1.7-10.54,2.889-15.9.306-1.342.642-2.684,1.06-4.046a21.02,21.02,0,0,1,1.713-4.161,7.874,7.874,0,0,1,1.753-2.174,4.884,4.884,0,0,1,1.611-.9,4.175,4.175,0,0,1,1.015-.2,3.6,3.6,0,0,1,1.261.107,4.236,4.236,0,0,1,1.85,1.117,6.74,6.74,0,0,1,.932,1.189,13.291,13.291,0,0,1,1.073,2.177,48.575,48.575,0,0,1,2.175,8.159c.521,2.685.942,5.369,1.342,8.032.771,5.343,1.4,10.674,2.03,15.992s1.243,10.626,1.965,15.89c.362,2.631.754,5.251,1.211,7.834a60.607,60.607,0,0,0,1.72,7.477,15.9,15.9,0,0,0,.6,1.61,3.977,3.977,0,0,0,.561.962.945.945,0,0,0-.442-.21,1.44,1.44,0,0,0-.307-.037.362.362,0,0,0-.1,0,.652.652,0,0,0-.145.034c-.132.057.1-.048.335-.4a12.648,12.648,0,0,0,1.38-2.94c.406-1.152.752-2.378,1.074-3.621,1.27-5.018,2.118-10.3,3.144-15.587.51-2.65,1.044-5.313,1.726-8.008.344-1.343.717-2.7,1.2-4.081a19.72,19.72,0,0,1,1.965-4.268,7.669,7.669,0,0,1,2.174-2.3,5.417,5.417,0,0,1,2.024-.821,7.581,7.581,0,0,1,1.794-.024,8.523,8.523,0,0,1,2.953.883,9.221,9.221,0,0,1,2.335,1.777,17.431,17.431,0,0,1,2.733,3.973c.68,1.275,1.243,2.467,1.831,3.531a10.593,10.593,0,0,0,1.777,2.5,2.7,2.7,0,0,0,1.743.789h.741l1-.021h.5a.577.577,0,0,1,.131-.014.662.662,0,0,0,.137-.043,2.907,2.907,0,0,0,1-1.377,25.8,25.8,0,0,0,1.584-6.848c.314-2.535.52-5.157.673-7.807.323-5.308.5-10.714,1.131-16.282a50.882,50.882,0,0,1,1.662-8.561,22.314,22.314,0,0,1,1.86-4.492,14.649,14.649,0,0,1,3.627-4.362,12.944,12.944,0,0,1,5.8-2.618c.483-.08,1.074-.166,1.482-.209s.8-.094,1.227-.115c.826-.051,1.667-.108,2.52-.089a21.637,21.637,0,0,1,10.366,2.615,22.949,22.949,0,0,1,7.951,7.584,28.841,28.841,0,0,1,2.465,4.735c.317.806.612,1.635.864,2.459.124.414.253.825.355,1.241l.268,1.106,3.571,15.656L543.7,334.43l7.3,31.276.913,3.908.456,1.955.217.915c.057.2.1.408.167.6a12.6,12.6,0,0,0,10.846,8.951c.41.043.826.056,1.24.061h.73c.209,0,.413-.026.62-.037a12.088,12.088,0,0,0,2.416-.454,12.429,12.429,0,0,0,8.427-8.285c.124-.392.218-.786.309-1.194l.406-1.965,6.507-31.45,6.548-31.442.821-3.931.269-1.216c.1-.456.236-.9.362-1.355q.4-1.35.924-2.655a28.56,28.56,0,0,1,15.423-15.606,28.139,28.139,0,0,1,5.385-1.651,27.549,27.549,0,0,1,2.787-.419c.467-.056.934-.075,1.4-.107.233-.016.467-.016.7-.024h.629Z"/></g></svg>